<svg xmlns="http://www.w3.org/2000/svg" viewBox="0 0 500 500"><g id="freepik--Floor--inject-22"><ellipse id="freepik--floor--inject-22" cx="250" cy="343.75" rx="243.12" ry="144.62" style="fill:#fafafa"></ellipse></g><g id="freepik--Shadows--inject-22"><ellipse id="freepik--Shadow--inject-22" cx="114.41" cy="388.55" rx="69.45" ry="40.1" style="fill:#e0e0e0"></ellipse><path id="freepik--shadow--inject-22" d="M301.71,461c31.29-18.06,31.29-47.35,0-65.41s-82-18.06-113.28,0-31.28,47.35,0,65.41S270.43,479,301.71,461Z" style="fill:#e0e0e0"></path><path id="freepik--shadow--inject-22" d="M428.81,408.71c39.59-22.86,39.59-59.92,0-82.78s-103.78-22.86-143.38,0-39.59,59.92,0,82.78S389.22,431.57,428.81,408.71Z" style="fill:#e0e0e0"></path><ellipse id="freepik--shadow--inject-22" cx="203.25" cy="307.47" rx="44.86" ry="25.9" style="fill:#e0e0e0"></ellipse></g><g id="freepik--Pictures--inject-22"><g id="freepik--Picture--inject-22"><g id="freepik--Frame--inject-22"><polygon points="377.64 136.57 376.04 137.52 343.16 118.54 344.76 117.59 377.64 136.57" style="fill:#fafafa"></polygon><polygon points="344.76 117.59 376.04 135.64 376.03 102.89 344.76 84.85 344.76 117.59" style="fill:#fff"></polygon><path d="M340.13,120.29l38.93,22.47V101.14L340.13,78.67Zm3-36.38,32.87,19v34.63l-32.87-19Z" style="fill:#f0f0f0"></path><polygon points="343.16 118.54 344.76 117.59 344.76 84.85 343.16 83.91 343.16 118.54" style="fill:#e0e0e0"></polygon><polygon points="340.13 78.67 341.76 77.74 380.69 100.21 379.06 101.14 340.13 78.67" style="fill:#fafafa"></polygon><polygon points="380.69 100.21 379.06 101.14 379.06 142.76 380.69 141.83 380.69 100.21" style="fill:#e0e0e0"></polygon></g><g id="freepik--Land--inject-22"><polygon points="345.98 116.61 374.81 133.25 374.81 124.93 367.61 108.28 363.11 112.45 364.73 119.42 354.77 98.13 345.98 108.29 345.98 116.61" style="fill:#f0f0f0"></polygon><path d="M363.39,100.25a4.73,4.73,0,0,1,2.13,3.69c0,1.36-1,1.91-2.13,1.23a4.71,4.71,0,0,1-2.14-3.69C361.25,100.12,362.21,99.57,363.39,100.25Z" style="fill:#f0f0f0"></path></g></g><g id="freepik--picture--inject-22"><g id="freepik--frame--inject-22"><polygon points="377.64 81.7 376.04 82.66 343.16 63.68 344.76 62.72 377.64 81.7" style="fill:#fafafa"></polygon><polygon points="344.76 62.72 376.04 80.78 376.03 48.02 344.76 29.98 344.76 62.72" style="fill:#fff"></polygon><path d="M340.14,65.42,379.06,87.9V46.28L340.13,23.81Zm3-36.38L376,48V82.66l-32.88-19Z" style="fill:#f0f0f0"></path><polygon points="343.16 63.68 344.76 62.72 344.76 29.98 343.16 29.04 343.16 63.68" style="fill:#e0e0e0"></polygon><polygon points="340.13 23.81 341.76 22.88 380.69 45.35 379.06 46.28 340.13 23.81" style="fill:#fafafa"></polygon><polygon points="380.69 45.35 379.06 46.28 379.06 87.9 380.69 86.97 380.69 45.35" style="fill:#e0e0e0"></polygon></g><g id="freepik--land--inject-22"><polygon points="345.98 61.74 374.81 78.39 374.81 70.07 367.61 53.42 363.11 57.58 364.73 64.56 354.77 43.27 345.98 53.42 345.98 61.74" style="fill:#f0f0f0"></polygon><path d="M363.39,45.38a4.74,4.74,0,0,1,2.13,3.7c0,1.36-1,1.91-2.13,1.23a4.73,4.73,0,0,1-2.14-3.7C361.25,45.25,362.21,44.7,363.39,45.38Z" style="fill:#f0f0f0"></path></g></g></g><g id="freepik--Window--inject-22"><g id="freepik--window--inject-22"><g id="freepik--window--inject-22"><g id="freepik--frame--inject-22"><polygon points="469.6 234.31 467.39 235.62 394.73 193.66 396.93 192.35 469.6 234.31" style="fill:#fafafa"></polygon><polygon points="396.93 192.35 467.39 233.03 467.39 74.33 396.93 33.67 396.93 192.35" style="fill:#fff"></polygon><path d="M390.57,196.06l81,46.75V71.93l-81-46.75Zm4.16-163.68,72.66,41.95V235.62l-72.66-42Z" style="fill:#f0f0f0"></path><polygon points="394.73 193.66 396.93 192.35 396.93 33.67 394.73 32.38 394.73 193.66" style="fill:#e0e0e0"></polygon><polygon points="467.39 181.52 467.39 184.1 394.73 142.15 396.93 140.84 467.39 181.52" style="fill:#fafafa"></polygon><polygon points="467.39 118.48 467.39 121.06 394.73 79.11 396.93 77.79 467.39 118.48" style="fill:#fafafa"></polygon><polygon points="390.57 25.18 392.81 23.9 473.78 70.65 471.55 71.93 390.57 25.18" style="fill:#fafafa"></polygon><polygon points="473.78 70.65 471.55 71.93 471.55 242.81 473.78 241.53 473.78 70.65" style="fill:#e0e0e0"></polygon><polygon points="435.37 55.84 433.13 54.55 433.13 215.84 435.37 214.56 435.37 55.84" style="fill:#e0e0e0"></polygon></g><polygon points="428.97 52.16 433.13 54.55 433.13 215.84 428.98 213.44 428.97 52.16" style="fill:#f0f0f0"></polygon><polygon points="390.57 76.71 390.57 81.5 471.55 128.25 471.55 123.46 390.57 76.71" style="fill:#f0f0f0"></polygon><polygon points="390.57 139.74 390.57 144.53 471.55 191.28 471.55 186.49 390.57 139.74" style="fill:#f0f0f0"></polygon><polygon points="433.13 101.28 435.37 99.99 467.39 118.48 467.39 121.06 433.13 101.28" style="fill:#fafafa"></polygon><polygon points="433.13 164.29 435.37 163 467.39 181.49 467.39 184.08 433.13 164.29" style="fill:#fafafa"></polygon></g></g></g><g id="freepik--Furniture--inject-22"><g id="freepik--chest-of-drawers--inject-22"><polygon points="290.5 253.86 279.49 247.5 290.5 244.32 290.5 253.86" style="fill:#e0e0e0"></polygon><polygon points="290.5 253.86 279.49 247.5 290.5 244.32 290.5 253.86" style="opacity:0.05"></polygon><polygon points="235.32 276.18 235.32 286.32 171.81 249.57 171.81 239.43 235.32 276.18" style="fill:#e0e0e0"></polygon><polygon points="235.32 276.18 235.32 286.32 171.81 249.57 171.81 239.43 235.32 276.18" style="opacity:0.05"></polygon><polygon points="166.3 159.92 229.82 196.68 229.82 279.36 166.3 242.61 166.3 159.92" style="fill:#ebebeb"></polygon><polygon points="229.82 196.68 301.52 155.27 301.52 237.96 229.82 279.36 229.82 196.68" style="fill:#f5f5f5"></polygon><polygon points="301.52 155.27 238.01 118.52 166.3 159.92 229.82 196.68 301.52 155.27" style="fill:#fafafa"></polygon><polygon points="235.32 286.32 240.83 283.14 240.83 273 235.32 276.18 235.32 286.32" style="fill:#ebebeb"></polygon><polygon points="290.5 253.86 296.01 250.68 296.01 241.14 290.5 244.32 290.5 253.86" style="fill:#ebebeb"></polygon><polygon points="235.32 201.15 296.02 166.11 296.02 185.19 235.32 220.23 235.32 201.15" style="fill:#ebebeb"></polygon><path d="M254.13,194.31c0,.88,2.63.07,5.88-1.8l10.28-5.94c3.25-1.87,5.88-4.1,5.88-5V180l-22,12.72Z" style="fill:#e0e0e0"></path><polygon points="235.32 225.3 296.02 190.25 296.02 209.34 235.32 244.38 235.32 225.3" style="fill:#ebebeb"></polygon><path d="M254.13,218.46c0,.87,2.63.07,5.88-1.8l10.28-5.94c3.25-1.88,5.88-4.11,5.88-5v-1.59l-22,12.72Z" style="fill:#e0e0e0"></path><polygon points="235.32 249.45 296.02 214.4 296.02 233.49 235.32 268.53 235.32 249.45" style="fill:#ebebeb"></polygon><path d="M254.13,242.6c0,.88,2.63.08,5.88-1.8l10.28-5.94c3.25-1.87,5.88-4.1,5.88-5v-1.59l-22,12.72Z" style="fill:#e0e0e0"></path><g id="freepik--shadow--inject-22"><path id="freepik--shadow--inject-22" d="M249.15,152.21a22.28,22.28,0,0,0,12.25-3.34c2.86-1.89,4.43-4.27,4.43-6.68s-1.57-4.79-4.43-6.68a24.13,24.13,0,0,0-24.5,0c-2.86,1.89-4.43,4.27-4.43,6.68s1.57,4.79,4.43,6.68A22.28,22.28,0,0,0,249.15,152.21Z" style="fill:#f0f0f0"></path></g><g id="freepik--Lamp--inject-22"><path d="M238.2,141.39a3.66,3.66,0,0,1,.08-.87,13,13,0,0,1,5.3-7.89h11a13,13,0,0,1,5.3,7.89,3.66,3.66,0,0,1,.08.87c0,.05,0,.15,0,.15-.1,1.53-1.15,3-3.18,4.21a17.05,17.05,0,0,1-15.43,0c-2-1.17-3.07-2.68-3.18-4.21C238.21,141.54,238.2,141.44,238.2,141.39Z" style="fill:#e0e0e0"></path><path d="M254.35,132.46c2.9,1.67,2.9,4.38,0,6a11.61,11.61,0,0,1-10.49,0c-2.9-1.67-2.9-4.38,0-6A11.55,11.55,0,0,1,254.35,132.46Z" style="fill:#ebebeb"></path><path d="M247.6,88.7h3v45.62h0a.69.69,0,0,1-.43.69,2.35,2.35,0,0,1-2.13,0,.69.69,0,0,1-.43-.69h0Z" style="fill:#e0e0e0"></path><path d="M226.87,82.9h0l10.47-26.71h23.55L271.36,82.9h0c1.49,4.18-.56,8.7-6.18,11.94-8.87,5.12-23.26,5.12-32.13,0C227.42,91.6,225.37,87.08,226.87,82.9Z" style="fill:#f0f0f0"></path><path d="M257.63,62.59c-4.71,2.71-12.34,2.71-17,0s-4.71-7.12,0-9.84,12.33-2.72,17,0S262.33,59.87,257.63,62.59Z" style="fill:#fafafa"></path><path d="M249.11,63.23a16,16,0,0,0,7.82-1.85c1.82-1.06,2.83-2.37,2.83-3.71s-1-2.66-2.83-3.71a17.45,17.45,0,0,0-15.64,0c-1.83,1-2.84,2.37-2.84,3.71s1,2.65,2.84,3.71A15.92,15.92,0,0,0,249.11,63.23Z" style="fill:#e0e0e0"></path></g><g id="freepik--picture--inject-22"><g id="freepik--frame--inject-22"><polygon points="208.05 171.15 209.59 171.89 238.24 155.35 236.7 154.6 208.05 171.15" style="fill:#fafafa"></polygon><polygon points="236.7 154.6 209.44 170.34 205.48 129.57 232.73 113.85 236.7 154.6" style="fill:#fff"></polygon><path d="M236.48,108.63l-33.92,19.58,4.68,48.08,33.92-19.58Zm1.76,46.72-28.65,16.54-4.11-42.32L234.13,113Z" style="fill:#f0f0f0"></path><polygon points="238.24 155.35 236.7 154.6 232.73 113.85 234.13 113.03 238.24 155.35" style="fill:#e0e0e0"></polygon><polygon points="236.48 108.63 234.91 107.91 201 127.49 202.56 128.21 236.48 108.63" style="fill:#fafafa"></polygon><polygon points="201 127.49 202.56 128.21 207.24 176.29 205.67 175.57 201 127.49" style="fill:#e0e0e0"></polygon></g><g id="freepik--land--inject-22"><polygon points="235.5 153.83 210.37 168.34 209.7 161.47 214.38 141.29 218.83 148.18 217.91 153.98 225.34 132.57 234.83 146.96 235.5 153.83" style="fill:#f0f0f0"></polygon><path d="M214,132.8a3.52,3.52,0,0,0-1.66,3.11c.11,1.12,1,1.55,2.06,1a3.54,3.54,0,0,0,1.66-3.1C215.94,132.64,215,132.21,214,132.8Z" style="fill:#f0f0f0"></path></g></g></g></g><g id="freepik--shelf-2--inject-22"><g id="freepik--Shelf--inject-22"><polygon points="147.83 66.36 116.01 47.98 14.51 106.56 14.51 110.06 46.33 128.43 147.83 69.85 147.83 66.36" style="fill:#ebebeb"></polygon><polygon points="46.33 124.94 147.83 66.36 116.01 47.98 14.51 106.56 46.33 124.94" style="fill:#fafafa"></polygon><polygon points="46.33 124.94 46.33 128.43 14.51 110.06 14.51 106.56 46.33 124.94" style="fill:#e6e6e6"></polygon><polygon points="117.71 16.11 138.34 28.03 138.34 67.29 117.71 55.37 117.71 16.11" style="fill:#e0e0e0"></polygon><path d="M137.68,28.69l-20-11.47a8.4,8.4,0,0,1-4.57,2.5L133,31.13A20.26,20.26,0,0,0,137.68,28.69Z" style="fill:#fff"></path><path d="M131,31.07a4.3,4.3,0,0,0,3.83,0l3.37-1.93a1.17,1.17,0,0,0,0-2.21L118.54,15.64l-.83.47,19.36,11.18a.7.7,0,0,1,0,1.32l-3.13,1.78a2.58,2.58,0,0,1-2.3,0L112.29,19.23l-1,.54Z" style="fill:#fafafa"></path><path d="M111.35,19.77V59L131,70.32a4.24,4.24,0,0,0,3.83,0l3.37-1.93a1.35,1.35,0,0,0,.79-1.1V28a1.35,1.35,0,0,1-.79,1.1l-3.37,1.94a4.3,4.3,0,0,1-3.83,0Z" style="fill:#e0e0e0"></path><path d="M132.94,31.52a4,4,0,0,0,1.92-.45l3.37-1.94A1.35,1.35,0,0,0,139,28V67.29a1.35,1.35,0,0,1-.79,1.1l-3.37,1.93a4,4,0,0,1-1.92.46Z" style="fill:#f0f0f0"></path><polygon points="109.27 20.96 129.91 32.88 129.91 72.14 109.27 60.22 109.27 20.96" style="fill:#ebebeb"></polygon><path d="M129.24,33.53l-20-11.46a8.4,8.4,0,0,1-4.57,2.5L124.51,36A19.91,19.91,0,0,0,129.24,33.53Z" style="fill:#fff"></path><path d="M122.59,35.91a4.26,4.26,0,0,0,3.84,0L129.79,34a1.16,1.16,0,0,0,0-2.2l-19.68-11.3-.84.48,19.36,11.18a.7.7,0,0,1,0,1.32l-3.13,1.77a2.55,2.55,0,0,1-2.3,0L103.85,24.07l-.95.54Z" style="fill:#fafafa"></path><path d="M102.91,24.61V63.87l19.68,11.29a4.26,4.26,0,0,0,3.84,0l3.36-1.92a1.35,1.35,0,0,0,.79-1.11V32.88a1.34,1.34,0,0,1-.79,1.1l-3.36,1.93a4.26,4.26,0,0,1-3.84,0Z" style="fill:#e0e0e0"></path><path d="M124.51,36.37a3.9,3.9,0,0,0,1.92-.46L129.79,34a1.34,1.34,0,0,0,.79-1.1V72.13a1.35,1.35,0,0,1-.79,1.11l-3.36,1.92a3.9,3.9,0,0,1-1.92.46Z" style="fill:#f0f0f0"></path><polygon points="95.18 31.39 115.81 43.31 109.41 83.75 88.77 71.84 95.18 31.39" style="fill:#ebebeb"></polygon><path d="M115,43.88,95,32.41a10.93,10.93,0,0,1-5.32,2.06l19.81,11.42A26.3,26.3,0,0,0,115,43.88Z" style="fill:#fff"></path><path d="M107.44,45.73a5.38,5.38,0,0,0,4.16.19l3.93-1.61c1.23-.5,1.38-1.4.32-2L96.15,31l-1,.4,19.36,11.18c.63.37.55.91-.19,1.21l-3.65,1.47a3.27,3.27,0,0,1-2.5-.11L88.85,34l-1.1.45Z" style="fill:#fafafa"></path><path d="M87.75,34.43,81.34,74.87,101,86.17a5.38,5.38,0,0,0,4.16.19l3.93-1.6c.61-.26,1-.61,1-1l6.41-40.45c-.06.37-.41.72-1,1l-3.93,1.61a5.38,5.38,0,0,1-4.16-.19Z" style="fill:#e0e0e0"></path><path d="M109.45,46.24a5.2,5.2,0,0,0,2.15-.32l3.93-1.61c.61-.25,1-.6,1-1l-6.41,40.45c-.06.36-.41.71-1,1l-3.93,1.6a5.17,5.17,0,0,1-2.15.32Z" style="fill:#f0f0f0"></path><g id="freepik--picture--inject-22"><g id="freepik--frame--inject-22"><polygon points="60.89 104.86 62.35 105.56 89.43 89.93 87.97 89.23 60.89 104.86" style="fill:#fafafa"></polygon><polygon points="87.97 89.23 62.21 104.09 58.47 65.57 84.22 50.71 87.97 89.23" style="fill:#fff"></polygon><path d="M87.76,45.78,55.71,64.29l4.42,45.43,32.05-18.5Zm1.67,44.15L62.35,105.56l-3.89-40L85.54,49.94Z" style="fill:#f0f0f0"></path><polygon points="89.43 89.93 87.97 89.23 84.22 50.71 85.54 49.94 89.43 89.93" style="fill:#e0e0e0"></polygon><polygon points="87.76 45.78 86.28 45.09 54.23 63.6 55.71 64.29 87.76 45.78" style="fill:#fafafa"></polygon><polygon points="54.23 63.6 55.71 64.29 60.13 109.72 58.65 109.04 54.23 63.6" style="fill:#e0e0e0"></polygon></g><g id="freepik--land--inject-22"><polygon points="86.83 88.49 63.09 102.2 62.46 95.71 66.87 76.65 71.08 83.15 70.21 88.64 77.23 68.41 86.2 82 86.83 88.49" style="fill:#f0f0f0"></polygon><path d="M66.51,68.62a3.35,3.35,0,0,0-1.57,2.94c.1,1.06,1,1.46,1.94.9a3.32,3.32,0,0,0,1.57-2.93C68.35,68.47,67.48,68.06,66.51,68.62Z" style="fill:#f0f0f0"></path></g></g><g id="freepik--Pot--inject-22"><path id="freepik--shadow--inject-22" d="M47.55,102.18c4.4,2.54,4.4,6.65,0,9.19a17.6,17.6,0,0,1-15.9,0c-4.4-2.54-4.4-6.65,0-9.19A17.6,17.6,0,0,1,47.55,102.18Z" style="opacity:0.05"></path><path d="M32.45,108.58c-3.83-3.9-6.07-13.65-2.34-16.75h19c3.73,3.1,1.49,12.84-2.33,16.75a1.14,1.14,0,0,0-.11.11l-.13.12a3.52,3.52,0,0,1-.35.31l-.09.07a2.21,2.21,0,0,1-.29.22,5.14,5.14,0,0,1-.49.32,12.65,12.65,0,0,1-11.4,0h0c-.17-.1-.33-.2-.5-.32l-.26-.2-.12-.09-.33-.3-.15-.15Z" style="fill:#f5f5f5"></path><path d="M47.44,90.35c4.34,2.5,4.34,6.56,0,9.06a17.33,17.33,0,0,1-15.68,0c-4.33-2.5-4.33-6.56,0-9.06A17.33,17.33,0,0,1,47.44,90.35Z" style="fill:#fff"></path><path d="M44.37,92.12c2.64,1.52,2.64,4,0,5.51a10.49,10.49,0,0,1-9.54,0c-2.64-1.52-2.64-4,0-5.51A10.55,10.55,0,0,1,44.37,92.12Z" style="fill:#ebebeb"></path><path d="M34.83,94.74a10.55,10.55,0,0,1,9.54,0A4.24,4.24,0,0,1,46,96.19a4.31,4.31,0,0,1-1.58,1.44,10.49,10.49,0,0,1-9.54,0,4.47,4.47,0,0,1-1.58-1.44A4.4,4.4,0,0,1,34.83,94.74Z" style="fill:#e0e0e0"></path><path d="M43.79,96.19a21.51,21.51,0,0,0,3.45-4.59c1.6-2.82,1.89-6.6,1.07-7.06s-4.18,3.3-4.18,3.3A20.6,20.6,0,0,0,44.48,83c-.14-2.51-.75-4.79-1.47-5.25s-2.33,2.71-3,5S38.89,87,38.89,87a35.16,35.16,0,0,0-1.24-5.29c-.83-2.38-1.59-2.92-2.18-2.68s-1,1.35-1.15,4.52a31.67,31.67,0,0,0,.14,4.54s-1.18-1.3-2.49-2.56-2.06-1.58-2.47-1.31S29,86.6,31.2,90.64a22.6,22.6,0,0,0,4.22,5.55S38.51,98.18,43.79,96.19Z" style="fill:#ebebeb"></path></g></g></g><g id="freepik--shelf-1--inject-22"><g id="freepik--Bookcase--inject-22"><g id="freepik--v--inject-22"><polygon points="191.22 278.44 157.55 259 14.51 341.59 14.51 345.28 48.18 364.73 191.22 282.14 191.22 278.44" style="fill:#ebebeb"></polygon><polygon points="48.18 361.03 191.22 278.44 157.55 259 14.51 341.59 48.18 361.03" style="fill:#f5f5f5"></polygon><polygon points="48.18 361.03 48.18 364.73 14.51 345.28 14.51 341.59 48.18 361.03" style="fill:#e0e0e0"></polygon><polygon points="191.22 143.24 157.55 123.8 154.35 125.64 154.35 260.85 188.02 280.29 191.22 278.44 191.22 143.24" style="fill:#ebebeb"></polygon><polygon points="154.35 260.85 188.02 280.29 188.02 145.09 154.35 125.64 154.35 260.85" style="fill:#e0e0e0"></polygon><polygon points="160.76 211.47 186.45 226.31 186.45 276.94 160.76 262.11 160.76 211.47" style="fill:#e0e0e0"></polygon><path d="M185.62,227.12l-24.86-14.26a10.42,10.42,0,0,1-5.68,3.1l24.65,14.21S181.32,229.8,185.62,227.12Z" style="fill:#fff"></path><path d="M177.34,230.08a5.27,5.27,0,0,0,4.77,0l4.19-2.4c1.32-.76,1.32-2,0-2.74l-24.5-14.06-1,.59,24.1,13.92a.86.86,0,0,1,0,1.64L181,229.24a3.22,3.22,0,0,1-2.87,0L154,215.35l-1.17.67Z" style="fill:#fafafa"></path><path d="M152.84,216v50.64l24.5,14a5.27,5.27,0,0,0,4.77,0l4.19-2.4a1.65,1.65,0,0,0,1-1.37V226.31a1.66,1.66,0,0,1-1,1.37l-4.19,2.4a5.27,5.27,0,0,1-4.77,0Z" style="fill:#e0e0e0"></path><path d="M179.73,230.65a4.87,4.87,0,0,0,2.38-.57l4.19-2.4a1.66,1.66,0,0,0,1-1.37v50.63a1.65,1.65,0,0,1-1,1.37l-4.19,2.4a4.87,4.87,0,0,1-2.38.57Z" style="fill:#f0f0f0"></path><polygon points="150.26 217.5 175.94 232.34 175.94 282.97 150.26 268.14 150.26 217.5" style="fill:#ebebeb"></polygon><path d="M175.12,233.15l-24.86-14.26a10.42,10.42,0,0,1-5.69,3.1l24.65,14.21S170.81,235.82,175.12,233.15Z" style="fill:#fff"></path><path d="M166.83,236.11a5.3,5.3,0,0,0,4.78,0l4.19-2.4c1.31-.76,1.31-2,0-2.74l-24.5-14.06-1,.59,24.09,13.92c.8.45.79,1.19,0,1.64l-3.89,2.21a3.2,3.2,0,0,1-2.86,0l-24.09-13.89-1.18.67Z" style="fill:#fafafa"></path><path d="M142.34,222.05v50.64l24.49,14.05a5.3,5.3,0,0,0,4.78,0l4.19-2.4a1.67,1.67,0,0,0,1-1.37V232.34a1.67,1.67,0,0,1-1,1.37l-4.19,2.4a5.3,5.3,0,0,1-4.78,0Z" style="fill:#e0e0e0"></path><path d="M169.22,236.68a4.88,4.88,0,0,0,2.39-.57l4.19-2.4a1.67,1.67,0,0,0,1-1.37V283a1.67,1.67,0,0,1-1,1.37l-4.19,2.4a4.88,4.88,0,0,1-2.39.57Z" style="fill:#f0f0f0"></path><polygon points="129.51 230.58 155.2 245.41 155.2 294.28 129.51 279.44 129.51 230.58" style="fill:#e0e0e0"></polygon><path d="M154.37,246.23,129.51,232a10.49,10.49,0,0,1-5.68,3.11l24.65,14.2S150.07,248.9,154.37,246.23Z" style="fill:#fff"></path><path d="M146.09,249.19a5.34,5.34,0,0,0,4.77,0l4.19-2.4c1.32-.76,1.32-2,0-2.75L130.55,230l-1,.6,24.1,13.91a.87.87,0,0,1,0,1.65l-3.89,2.2a3.16,3.16,0,0,1-2.87,0l-24.09-13.89-1.17.68Z" style="fill:#fafafa"></path><path d="M121.59,235.13V284l24.5,14.06a5.34,5.34,0,0,0,4.77,0l4.19-2.4a1.68,1.68,0,0,0,1-1.37V245.41a1.66,1.66,0,0,1-1,1.37l-4.19,2.41a5.27,5.27,0,0,1-4.77,0Z" style="fill:#e0e0e0"></path><path d="M148.48,249.76a4.87,4.87,0,0,0,2.38-.57l4.19-2.41a1.66,1.66,0,0,0,1-1.37v48.87a1.68,1.68,0,0,1-1,1.37l-4.19,2.4a4.87,4.87,0,0,1-2.38.57Z" style="fill:#f0f0f0"></path><polygon points="119.01 236.61 144.69 251.44 144.69 300.31 119.01 285.47 119.01 236.61" style="fill:#ebebeb"></polygon><path d="M143.87,252.26,119,238a10.49,10.49,0,0,1-5.69,3.11L138,255.3S139.56,254.93,143.87,252.26Z" style="fill:#fff"></path><path d="M135.58,255.22a5.36,5.36,0,0,0,4.78,0l4.19-2.4c1.31-.76,1.31-2,0-2.75L120.05,236l-1,.6,24.09,13.91a.87.87,0,0,1,0,1.65l-3.89,2.2a3.14,3.14,0,0,1-2.86,0l-24.09-13.89-1.18.68Z" style="fill:#fafafa"></path><path d="M111.09,241.16V290l24.49,14.06a5.36,5.36,0,0,0,4.78,0l4.19-2.4a1.68,1.68,0,0,0,1-1.37V251.44a1.67,1.67,0,0,1-1,1.37l-4.19,2.41a5.3,5.3,0,0,1-4.78,0Z" style="fill:#e0e0e0"></path><path d="M138,255.79a4.88,4.88,0,0,0,2.39-.57l4.19-2.41a1.67,1.67,0,0,0,1-1.37v48.87a1.68,1.68,0,0,1-1,1.37l-4.19,2.4a4.88,4.88,0,0,1-2.39.57Z" style="fill:#f0f0f0"></path><polygon points="101.47 249.59 127.15 264.43 119.18 314.77 93.49 299.94 101.47 249.59" style="fill:#ebebeb"></polygon><path d="M126.14,265.13l-24.87-14.27a13.64,13.64,0,0,1-6.62,2.57l24.65,14.21S121.08,267.37,126.14,265.13Z" style="fill:#fff"></path><path d="M116.73,267.44a6.67,6.67,0,0,0,5.18.23l4.88-2c1.54-.63,1.72-1.76.4-2.51L102.68,249.1l-1.21.49,24.09,13.92c.8.45.69,1.13-.24,1.5l-4.53,1.83a4,4,0,0,1-3.11-.14L93.59,252.81l-1.37.57Z" style="fill:#fafafa"></path><path d="M92.22,253.37l-8,50.34,24.51,14.07a6.67,6.67,0,0,0,5.18.23l4.89-2c.76-.32,1.2-.75,1.27-1.21l8-50.34c-.08.46-.51.89-1.27,1.21l-4.89,2a6.67,6.67,0,0,1-5.18-.24Z" style="fill:#e0e0e0"></path><path d="M119.23,268.08a6.66,6.66,0,0,0,2.68-.4l4.89-2c.76-.32,1.19-.75,1.27-1.21l-8,50.34c-.07.46-.51.89-1.27,1.21l-4.89,2a6.47,6.47,0,0,1-2.67.41Z" style="fill:#f0f0f0"></path><polygon points="83.15 258.63 108.83 273.46 108.83 321.15 83.15 306.31 83.15 258.63" style="fill:#e0e0e0"></polygon><path d="M108,274.28,83.15,260a10.49,10.49,0,0,1-5.69,3.11l24.65,14.2S103.7,277,108,274.28Z" style="fill:#fff"></path><path d="M99.72,277.24a5.3,5.3,0,0,0,4.78,0l4.18-2.4c1.32-.76,1.32-2,0-2.75L84.19,258l-1,.6,24.09,13.91a.87.87,0,0,1,0,1.65l-3.89,2.2a3.16,3.16,0,0,1-2.87,0L76.4,262.5l-1.18.68Z" style="fill:#fafafa"></path><path d="M75.22,263.18v47.68l24.5,14.06a5.36,5.36,0,0,0,4.78,0l4.18-2.4a1.68,1.68,0,0,0,1-1.37V273.46a1.65,1.65,0,0,1-1,1.37l-4.18,2.41a5.3,5.3,0,0,1-4.78,0Z" style="fill:#e0e0e0"></path><path d="M102.11,277.81a4.91,4.91,0,0,0,2.39-.57l4.18-2.41a1.65,1.65,0,0,0,1-1.37v47.69a1.68,1.68,0,0,1-1,1.37l-4.18,2.4a4.91,4.91,0,0,1-2.39.57Z" style="fill:#f0f0f0"></path><polygon points="72.64 264.66 98.33 279.5 98.33 327.18 72.64 312.34 72.64 264.66" style="fill:#ebebeb"></polygon><path d="M97.5,280.31,72.64,266A10.49,10.49,0,0,1,67,269.15l24.65,14.2S93.2,283,97.5,280.31Z" style="fill:#fff"></path><path d="M89.22,283.27a5.34,5.34,0,0,0,4.77,0l4.19-2.4c1.32-.76,1.32-2,0-2.75l-24.5-14.06-1,.6,24.1,13.91a.87.87,0,0,1,0,1.65l-3.89,2.2a3.16,3.16,0,0,1-2.87,0L65.89,268.53l-1.17.68Z" style="fill:#fafafa"></path><path d="M64.72,269.21v47.68L89.22,331A5.34,5.34,0,0,0,94,331l4.19-2.4a1.68,1.68,0,0,0,1-1.37V279.49a1.65,1.65,0,0,1-1,1.37L94,283.27a5.27,5.27,0,0,1-4.77,0Z" style="fill:#e0e0e0"></path><path d="M91.61,283.84a4.84,4.84,0,0,0,2.38-.57l4.19-2.41a1.65,1.65,0,0,0,1-1.37v47.69a1.68,1.68,0,0,1-1,1.37L94,331a4.84,4.84,0,0,1-2.38.57Z" style="fill:#f0f0f0"></path><polygon points="50.57 275.87 76.25 290.71 76.25 339.57 50.57 324.74 50.57 275.87" style="fill:#e0e0e0"></polygon><path d="M75.42,291.52,50.57,277.26a10.49,10.49,0,0,1-5.69,3.11l24.65,14.2S71.12,294.2,75.42,291.52Z" style="fill:#fff"></path><path d="M67.14,294.48a5.3,5.3,0,0,0,4.78,0l4.18-2.4c1.32-.75,1.32-2,0-2.74L51.6,275.28l-1,.59,24.09,13.92a.86.86,0,0,1,0,1.64l-3.89,2.21a3.22,3.22,0,0,1-2.87,0L43.82,279.75l-1.18.68Z" style="fill:#fafafa"></path><path d="M42.64,280.42v48.87l24.5,14.06a5.36,5.36,0,0,0,4.78,0l4.18-2.41a1.65,1.65,0,0,0,1-1.37V290.71a1.66,1.66,0,0,1-1,1.37l-4.18,2.41a5.36,5.36,0,0,1-4.78,0Z" style="fill:#e0e0e0"></path><path d="M69.53,295.06a4.91,4.91,0,0,0,2.39-.57l4.18-2.41a1.66,1.66,0,0,0,1-1.37v48.86a1.65,1.65,0,0,1-1,1.37l-4.18,2.41a5,5,0,0,1-2.39.56Z" style="fill:#f0f0f0"></path><polygon points="40.06 281.9 65.75 296.74 65.75 345.61 40.06 330.77 40.06 281.9" style="fill:#ebebeb"></polygon><path d="M64.92,297.55,40.06,283.29a10.49,10.49,0,0,1-5.68,3.11L59,300.6S60.62,300.23,64.92,297.55Z" style="fill:#fff"></path><path d="M56.64,300.51a5.27,5.27,0,0,0,4.77,0l4.19-2.4c1.32-.75,1.32-2,0-2.74L41.1,281.31l-1,.59,24.1,13.92a.86.86,0,0,1,0,1.64l-3.89,2.21a3.22,3.22,0,0,1-2.87,0L33.31,285.78l-1.17.68Z" style="fill:#fafafa"></path><path d="M32.14,286.45v48.87l24.5,14.06a5.34,5.34,0,0,0,4.77,0L65.6,347a1.65,1.65,0,0,0,1-1.37V296.74a1.66,1.66,0,0,1-1,1.37l-4.19,2.41a5.34,5.34,0,0,1-4.77,0Z" style="fill:#e0e0e0"></path><path d="M59,301.08a4.87,4.87,0,0,0,2.38-.56l4.19-2.41a1.66,1.66,0,0,0,1-1.37V345.6a1.65,1.65,0,0,1-1,1.37l-4.19,2.41a5,5,0,0,1-2.38.56Z" style="fill:#f0f0f0"></path><polygon points="184.73 217.08 151.05 197.62 14.51 276.45 14.51 280.15 48.18 299.61 184.73 220.78 184.73 217.08" style="fill:#ebebeb"></polygon><polygon points="48.18 295.91 184.73 217.08 151.05 197.62 14.51 276.45 48.18 295.91" style="fill:#f5f5f5"></polygon><polygon points="48.18 295.91 48.18 299.61 14.51 280.15 14.51 276.45 48.18 295.91" style="fill:#e0e0e0"></polygon><polygon points="158.13 150.43 183.81 165.27 175.84 215.61 150.15 200.77 158.13 150.43" style="fill:#ebebeb"></polygon><path d="M182.8,166,157.93,151.7a13.64,13.64,0,0,1-6.62,2.57L176,168.47S177.75,168.21,182.8,166Z" style="fill:#fff"></path><path d="M173.39,168.28a6.67,6.67,0,0,0,5.18.23l4.88-2c1.54-.63,1.72-1.76.4-2.51l-24.51-14.07-1.21.49,24.09,13.92c.8.45.69,1.13-.24,1.5l-4.53,1.83a4,4,0,0,1-3.11-.14l-24.09-13.89-1.37.56Z" style="fill:#fafafa"></path><path d="M148.88,154.21l-8,50.34,24.51,14.07a6.67,6.67,0,0,0,5.18.23l4.89-2c.76-.32,1.2-.76,1.27-1.21l8-50.34c-.08.45-.51.89-1.27,1.2l-4.89,2a6.71,6.71,0,0,1-5.18-.24Z" style="fill:#e0e0e0"></path><path d="M175.89,168.92a6.66,6.66,0,0,0,2.68-.4l4.89-2c.76-.31,1.19-.75,1.27-1.2l-8,50.34c-.07.45-.51.89-1.27,1.21l-4.89,2a6.3,6.3,0,0,1-2.67.4Z" style="fill:#f0f0f0"></path><polygon points="126.7 164.6 152.39 179.44 152.39 228.3 126.7 213.47 126.7 164.6" style="fill:#ebebeb"></polygon><path d="M151.56,180.25,126.7,166a10.39,10.39,0,0,1-5.68,3.1l24.65,14.21S147.26,182.93,151.56,180.25Z" style="fill:#fff"></path><path d="M143.28,183.21a5.3,5.3,0,0,0,4.78,0l4.18-2.4c1.32-.76,1.32-2,0-2.74L127.74,164l-1,.59,24.1,13.92a.86.86,0,0,1,0,1.64l-3.89,2.21a3.22,3.22,0,0,1-2.87,0L120,168.48l-1.18.67Z" style="fill:#fafafa"></path><path d="M118.78,169.15V218l24.5,14a5.3,5.3,0,0,0,4.78,0l4.18-2.4a1.66,1.66,0,0,0,1-1.37V179.44a1.66,1.66,0,0,1-1,1.37l-4.18,2.41a5.36,5.36,0,0,1-4.78,0Z" style="fill:#e0e0e0"></path><path d="M145.67,183.78a5,5,0,0,0,2.39-.56l4.18-2.41a1.66,1.66,0,0,0,1-1.37V228.3a1.66,1.66,0,0,1-1,1.37l-4.18,2.4a4.91,4.91,0,0,1-2.39.57Z" style="fill:#f0f0f0"></path><polygon points="113.62 163.44 139.3 178.28 139.3 235.78 113.62 220.95 113.62 163.44" style="fill:#e0e0e0"></polygon><path d="M138.47,179.09l-24.85-14.27a10.36,10.36,0,0,1-5.69,3.11l24.65,14.21S134.17,181.76,138.47,179.09Z" style="fill:#fff"></path><path d="M130.19,182.05a5.3,5.3,0,0,0,4.78,0l4.18-2.4c1.32-.76,1.32-2,0-2.74l-24.5-14.06-1,.59,24.09,13.92a.86.86,0,0,1,0,1.64l-3.89,2.21a3.22,3.22,0,0,1-2.87,0l-24.08-13.89-1.18.67Z" style="fill:#fafafa"></path><path d="M105.69,168V225.5l24.5,14.05a5.3,5.3,0,0,0,4.78,0l4.18-2.4a1.66,1.66,0,0,0,1-1.37v-57.5a1.66,1.66,0,0,1-1,1.37l-4.18,2.4a5.3,5.3,0,0,1-4.78,0Z" style="fill:#e0e0e0"></path><path d="M132.58,182.62a4.91,4.91,0,0,0,2.39-.57l4.18-2.4a1.66,1.66,0,0,0,1-1.37v57.5a1.66,1.66,0,0,1-1,1.37l-4.18,2.4a4.91,4.91,0,0,1-2.39.57Z" style="fill:#f0f0f0"></path><polygon points="103.11 169.47 128.8 184.31 128.8 241.81 103.11 226.98 103.11 169.47" style="fill:#ebebeb"></polygon><path d="M128,185.12l-24.86-14.27A10.37,10.37,0,0,1,97.43,174l24.65,14.21S123.67,187.79,128,185.12Z" style="fill:#fff"></path><path d="M119.69,188.08a5.27,5.27,0,0,0,4.77,0l4.19-2.4c1.32-.76,1.32-2,0-2.74l-24.5-14.06-1,.59,24.1,13.92a.86.86,0,0,1,0,1.64l-3.89,2.21a3.22,3.22,0,0,1-2.87,0L96.36,173.35l-1.17.67Z" style="fill:#fafafa"></path><path d="M95.19,174v57.51l24.5,14.05a5.27,5.27,0,0,0,4.77,0l4.19-2.4a1.66,1.66,0,0,0,1-1.37v-57.5a1.66,1.66,0,0,1-1,1.37l-4.19,2.4a5.27,5.27,0,0,1-4.77,0Z" style="fill:#e0e0e0"></path><path d="M122.08,188.65a4.87,4.87,0,0,0,2.38-.57l4.19-2.4a1.66,1.66,0,0,0,1-1.37v57.5a1.66,1.66,0,0,1-1,1.37l-4.19,2.4a4.87,4.87,0,0,1-2.38.57Z" style="fill:#f0f0f0"></path><polygon points="72 191.02 100.64 207.56 91.74 263.68 63.11 247.14 72 191.02" style="fill:#ebebeb"></polygon><path d="M99.51,208.34,71.78,192.43a15.19,15.19,0,0,1-7.37,2.86l27.48,15.84S93.87,210.84,99.51,208.34Z" style="fill:#fff"></path><path d="M89,210.92a7.44,7.44,0,0,0,5.78.25l5.45-2.22c1.71-.7,1.91-2,.44-2.8L73.36,190.47,72,191l26.87,15.51c.88.51.76,1.26-.27,1.68l-5.06,2a4.47,4.47,0,0,1-3.47-.16L63.22,194.61l-1.53.62Z" style="fill:#fafafa"></path><path d="M61.69,195.23,52.8,251.35,80.12,267a7.42,7.42,0,0,0,5.77.26l5.45-2.22c.86-.35,1.34-.84,1.42-1.35l8.89-56.12c-.08.51-.56,1-1.41,1.35l-5.45,2.23a7.49,7.49,0,0,1-5.78-.26Z" style="fill:#e0e0e0"></path><path d="M91.81,211.63a7.41,7.41,0,0,0,3-.45l5.45-2.23c.85-.35,1.33-.84,1.41-1.35l-8.89,56.12c-.08.51-.56,1-1.42,1.35l-5.45,2.22a7.19,7.19,0,0,1-3,.45Z" style="fill:#f0f0f0"></path><polygon points="52.95 200.06 78.63 214.9 78.63 271.08 52.95 256.24 52.95 200.06" style="fill:#e0e0e0"></polygon><path d="M77.81,215.71,53,201.44a10.43,10.43,0,0,1-5.69,3.11l24.65,14.21S73.5,218.38,77.81,215.71Z" style="fill:#fff"></path><path d="M69.52,218.67a5.3,5.3,0,0,0,4.78,0l4.18-2.4c1.32-.76,1.32-2,0-2.74L54,199.47l-1,.59L77,214a.86.86,0,0,1,0,1.64l-3.89,2.21a3.19,3.19,0,0,1-2.87,0L46.2,203.94l-1.18.67Z" style="fill:#fafafa"></path><path d="M45,204.61v56.18l24.49,14.06a5.36,5.36,0,0,0,4.78,0l4.19-2.41a1.66,1.66,0,0,0,1-1.37V214.9a1.68,1.68,0,0,1-1,1.37l-4.19,2.4a5.3,5.3,0,0,1-4.78,0Z" style="fill:#e0e0e0"></path><path d="M71.91,219.24a4.91,4.91,0,0,0,2.39-.57l4.19-2.4a1.68,1.68,0,0,0,1-1.37v56.17a1.66,1.66,0,0,1-1,1.37l-4.19,2.41a5,5,0,0,1-2.39.56Z" style="fill:#f0f0f0"></path><polygon points="42.44 206.09 68.13 220.93 68.13 277.11 42.44 262.27 42.44 206.09" style="fill:#ebebeb"></polygon><path d="M67.3,221.74,42.44,207.47a10.43,10.43,0,0,1-5.68,3.11l24.65,14.21S63,224.41,67.3,221.74Z" style="fill:#fff"></path><path d="M59,224.7a5.3,5.3,0,0,0,4.78,0L68,222.3c1.32-.76,1.32-2,0-2.74L43.48,205.5l-1,.59L66.54,220a.86.86,0,0,1,0,1.64l-3.89,2.21a3.19,3.19,0,0,1-2.87,0L35.69,210l-1.17.67Z" style="fill:#fafafa"></path><path d="M34.52,210.64v56.18L59,280.88a5.34,5.34,0,0,0,4.77,0L68,278.47a1.65,1.65,0,0,0,1-1.37V220.93a1.68,1.68,0,0,1-1,1.37l-4.19,2.4a5.27,5.27,0,0,1-4.77,0Z" style="fill:#e0e0e0"></path><path d="M61.41,225.27a4.84,4.84,0,0,0,2.38-.57L68,222.3a1.68,1.68,0,0,0,1-1.37V277.1a1.65,1.65,0,0,1-1,1.37l-4.19,2.41a5,5,0,0,1-2.38.56Z" style="fill:#f0f0f0"></path><polygon points="51.38 223.98 17.71 204.53 14.51 206.38 14.51 345.28 48.18 364.73 51.38 362.88 51.38 223.98" style="fill:#ebebeb"></polygon><polygon points="14.51 345.28 48.18 364.73 48.18 225.82 14.51 206.38 14.51 345.28" style="fill:#e6e6e6"></polygon><polygon points="191.22 139.54 157.55 120.1 14.51 202.69 14.51 206.38 48.18 225.82 191.22 143.24 191.22 139.54" style="fill:#ebebeb"></polygon><polygon points="48.18 222.13 191.22 139.54 157.55 120.1 14.51 202.69 48.18 222.13" style="fill:#fafafa"></polygon><polygon points="48.18 222.13 48.18 225.82 14.51 206.38 14.51 202.69 48.18 222.13" style="fill:#e6e6e6"></polygon></g><g id="freepik--picture--inject-22"><g id="freepik--frame--inject-22"><polygon points="45.44 204.27 46.98 205.01 75.63 188.47 74.08 187.72 45.44 204.27" style="fill:#fafafa"></polygon><polygon points="74.08 187.72 46.83 203.46 42.87 162.69 70.12 146.97 74.08 187.72" style="fill:#fff"></polygon><path d="M73.87,141.75,40,161.33l4.68,48.08,33.92-19.58Zm1.76,46.72L47,205l-4.11-42.32,28.65-16.54Z" style="fill:#f0f0f0"></path><polygon points="75.63 188.47 74.08 187.72 70.12 146.97 71.52 146.15 75.63 188.47" style="fill:#e0e0e0"></polygon><polygon points="73.87 141.75 72.3 141.03 38.38 160.61 39.95 161.33 73.87 141.75" style="fill:#fafafa"></polygon><polygon points="38.38 160.61 39.95 161.33 44.63 209.41 43.06 208.69 38.38 160.61" style="fill:#e0e0e0"></polygon></g><g id="freepik--land--inject-22"><polygon points="72.89 186.95 47.76 201.46 47.09 194.59 51.77 174.41 56.22 181.3 55.3 187.1 62.73 165.69 72.22 180.08 72.89 186.95" style="fill:#f0f0f0"></polygon><path d="M51.38,165.92a3.52,3.52,0,0,0-1.66,3.1c.11,1.13,1,1.56,2.05,1a3.55,3.55,0,0,0,1.67-3.1C53.33,165.76,52.41,165.33,51.38,165.92Z" style="fill:#f0f0f0"></path></g></g><g id="freepik--pot--inject-22"><path id="freepik--shadow--inject-22" d="M157.34,137.75c4.9,2.83,4.9,7.41,0,10.24s-12.83,2.83-17.73,0-4.9-7.41,0-10.24S152.45,134.92,157.34,137.75Z" style="opacity:0.05"></path><path d="M140.5,144.88c-4.26-4.35-6.77-15.22-2.61-18.67h21.17c4.16,3.45,1.66,14.31-2.61,18.67l-.11.12-.15.14c-.12.12-.25.23-.39.35l-.1.08-.32.24a4.62,4.62,0,0,1-.55.35,14,14,0,0,1-12.71,0h0a4.62,4.62,0,0,1-.55-.35c-.11-.08-.21-.15-.3-.23l-.13-.1-.37-.33-.17-.16Z" style="fill:#f5f5f5"></path><path d="M157.22,124.56c4.83,2.78,4.83,7.31,0,10.09s-12.66,2.79-17.49,0-4.83-7.31,0-10.09S152.39,121.77,157.22,124.56Z" style="fill:#fff"></path><path d="M153.8,126.53c2.94,1.7,2.94,4.45,0,6.15a11.82,11.82,0,0,1-10.65,0c-2.93-1.7-2.93-4.45,0-6.15A11.82,11.82,0,0,1,153.8,126.53Z" style="fill:#ebebeb"></path><path d="M143.15,129.45a11.76,11.76,0,0,1,10.65,0,5,5,0,0,1,1.76,1.61,5,5,0,0,1-1.76,1.62,11.82,11.82,0,0,1-10.65,0,5,5,0,0,1-1.76-1.62A5,5,0,0,1,143.15,129.45Z" style="fill:#e0e0e0"></path><path d="M153.15,131.06A24.16,24.16,0,0,0,157,126c1.77-3.15,2.1-7.36,1.18-7.88s-4.66,3.68-4.66,3.68a22.33,22.33,0,0,0,.4-5.36c-.16-2.8-.84-5.34-1.64-5.86s-2.6,3-3.37,5.58-1.23,4.66-1.23,4.66a39.58,39.58,0,0,0-1.37-5.89c-.94-2.65-1.78-3.25-2.44-3s-1.09,1.5-1.28,5a33.93,33.93,0,0,0,.16,5.06s-1.32-1.45-2.79-2.85-2.29-1.76-2.75-1.47-.59,2.7,1.9,7.21a25.19,25.19,0,0,0,4.7,6.18S147.26,133.29,153.15,131.06Z" style="fill:#ebebeb"></path></g></g></g><g id="freepik--Teddy--inject-22"><g id="freepik--teddy-bear--inject-22"><g id="freepik--Arm--inject-22"><path d="M208.21,256.81c7.09,2.85,16.48,11.86,17.22,20.44s-6.86,10.07-11.91,5.67-11.23-18-10.82-21.92S206,255.91,208.21,256.81Z" style="fill:#9a4a4d"></path><path d="M225.16,271.93c11.15-.59,13.37,17,4.35,17.3S216.39,272.39,225.16,271.93Z" style="fill:#9a4a4d"></path></g><g id="freepik--Paw--inject-22"><path d="M209.55,304.46c1.52,3.25,13.29,11.05,16.41,12.61,1.66.82,5,2.1,7.19,2.08,5.63,0,8.82-3,11.38-9.73,1.7-4.41,3-15.43-3.52-17.94-7.35-2.78-12.66,4.54-12.66,4.54s-7.76-3.13-13.08-2.27S208.05,301.19,209.55,304.46Z" style="fill:#9a4a4d"></path><path d="M232.25,300.8c1.93-3.93,4.6-6.12,7.11-6.94a5.1,5.1,0,0,1,6.13,3.41,23.29,23.29,0,0,1-1,12.15c-2.38,6.21-5.31,9.24-10.24,9.67C227.87,318.35,229.27,306.86,232.25,300.8Z" style="fill:#b16668"></path><path d="M233.45,312.17c0,3.18,1.93,4.65,4.32,3.27s4.32-5.07,4.32-8.25-1.94-4.64-4.32-3.27S233.45,309,233.45,312.17Z" style="fill:#f28f8f"></path><path d="M238.18,300.32c0,1.2.73,1.75,1.63,1.23a3.9,3.9,0,0,0,1.64-3.12c0-1.2-.73-1.76-1.64-1.24A3.92,3.92,0,0,0,238.18,300.32Z" style="fill:#f28f8f"></path><path d="M233,303.83c0,1.2.73,1.76,1.64,1.23a3.92,3.92,0,0,0,1.63-3.12c0-1.2-.73-1.76-1.63-1.24A3.92,3.92,0,0,0,233,303.83Z" style="fill:#f28f8f"></path><path d="M242,302.55c0,1.21.74,1.76,1.64,1.24a3.92,3.92,0,0,0,1.63-3.13c0-1.2-.73-1.75-1.63-1.23A3.92,3.92,0,0,0,242,302.55Z" style="fill:#f28f8f"></path><path d="M224.74,302.88a13.93,13.93,0,0,1,1.4-7.64c1.35.43,2.21.78,2.21.78A26.81,26.81,0,0,0,224.74,302.88Z" style="opacity:0.1"></path></g><g id="freepik--Body--inject-22"><path d="M167.75,295.73c1.82,12.48,10.38,17.1,18.21,18.55a37.27,37.27,0,0,0,10.37.4c7.43-.74,21.68-2.52,26.79-19,4.88-15.71-10.55-25.31-10.55-25.31-3.15-13.14-14.3-14.26-20.51-13.6C178.17,258.27,165,277,167.75,295.73Z" style="fill:#b16668"></path><path d="M212.2,296.39a26.86,26.86,0,0,0-1.18-4.21c-1-2.67-2-5.28-2-8.16,0-1.5.16-3,.18-4.5a26,26,0,0,0-.22-3.75,26.59,26.59,0,0,0-2.41-8,6.59,6.59,0,0,0,.75-.65,6,6,0,0,0,.4-.46,1.24,1.24,0,0,0,.31-.53c0-.2-.25-.42-.43-.31a3.58,3.58,0,0,0-.57.53l-.48.45-.33.28a26.09,26.09,0,0,0-3.29-4.9,22.48,22.48,0,0,0-6-5l-.81-.42c-.67,0-1.32-.05-1.94,0l.14.05a19.3,19.3,0,0,1,6.41,4.43,26.18,26.18,0,0,1,4.62,6.39,4.46,4.46,0,0,1-1.73.39,1.87,1.87,0,0,0-.78.11.24.24,0,0,0-.14.14.15.15,0,0,0,0,.07l.25.36.11.05a2.69,2.69,0,0,0,1.13,0,4.9,4.9,0,0,0,1.51-.46,26.48,26.48,0,0,1,2,5.8,28.55,28.55,0,0,1,.43,7.72,17.38,17.38,0,0,0,1.12,8.34c.45,1.29,1,2.57,1.37,3.88a23.1,23.1,0,0,1,.9,4.2,27.72,27.72,0,0,1-.11,8.53,13.83,13.83,0,0,1-2,5c.5-.23,1-.47,1.51-.73a14.33,14.33,0,0,0,.77-1.69,21.52,21.52,0,0,0,1-8.4A32,32,0,0,0,212.2,296.39Z" style="fill:#9a4a4d"></path><path d="M221,300.86c-4.79,9-19.37,11-32.31,7.9l-.8-.2c-7.91-2.14-14.54-6.72-13.91-19.08S181.43,271,181.43,271s4.86,3.92,9.59,2.42c3.15-1,1.38-4.52,1.38-4.52s11.45,0,16-6.79c-4.76-5.27-11.85-5.73-16.34-5.25C178.17,258.27,165,277,167.75,295.73c1.82,12.48,10.38,17.1,18.21,18.55a37.27,37.27,0,0,0,10.37.4C202.89,314,214.79,312.55,221,300.86Z" style="opacity:0.1"></path><path d="M200.69,278.57c13.2-5.9,21.34,2.71,20.3,13.76-.89,9.42-13.08,16.35-24.7,12S189.53,283.55,200.69,278.57Z" style="fill:#f28f8f"></path></g><g id="freepik--Head--inject-22"><path d="M199.23,223.83c-.74-3.17,6.81-11.34,14.14-5.11,6.69,5.7.72,15-4.78,14.84S199.23,223.83,199.23,223.83Z" style="fill:#9a4a4d"></path><path d="M208.7,231.45c2.81-.06,7-3.39,4.7-7.52a4.81,4.81,0,0,0-7.62-1.35,7.46,7.46,0,0,0-1.64,5Z" style="fill:#f28f8f"></path><path d="M211.79,253a24.72,24.72,0,0,0-2-22.1c-4.7-7.32-15.15-11.39-25.39-9.61-10.4,1.82-17.66,8.94-18.92,19.42-1.6,13.28,6.92,22.4,20.2,24,5,.61,11.31.32,16-1.54C206,261.48,209.09,259.71,211.79,253Z" style="fill:#b16668"></path><path d="M200.77,239.14a1.14,1.14,0,0,0,.58-.08c.16-.08,0-.32-.1-.38a2.18,2.18,0,0,0-1.11-.08l-.5.07a36.31,36.31,0,0,0-2.39-6.72l-.2-.4.41,0a4.35,4.35,0,0,1,.51,0,1.31,1.31,0,0,0,.59-.06c.16-.08,0-.33-.09-.38a2.1,2.1,0,0,0-1.11-.11,5.9,5.9,0,0,0-.59.06,23.55,23.55,0,0,0-4-5.58h.05l.47-.06a3.51,3.51,0,0,0,1-.09c.25-.1,0-.41-.15-.46a1.37,1.37,0,0,0-.53,0l-.55,0a6.67,6.67,0,0,0-.78.12,16.9,16.9,0,0,0-4.09-2.89,14.59,14.59,0,0,0-2.32-.93c-.66.08-1.35.2-2,.32a14.09,14.09,0,0,1,3.17,1,16,16,0,0,1,4.23,2.81l-.38.13a2,2,0,0,0-.88.49c0,.06,0,.23.08.23a3.47,3.47,0,0,0,1-.26l.66-.16c.21.2.41.41.61.63a23.49,23.49,0,0,1,3.51,5,6.45,6.45,0,0,0-.62.21c-.28.13-.66.28-.79.58,0,0,0,.13.05.14a2.48,2.48,0,0,0,1-.24l.64-.19a34.14,34.14,0,0,1,2.62,7l0,.12a4.52,4.52,0,0,0-.73.26c-.28.13-.65.3-.77.6,0,.05,0,.12,0,.13a2.47,2.47,0,0,0,1-.26,6.17,6.17,0,0,1,.61-.19c.26,1.11.48,2.24.63,3.38.2,1.43.26,2.87.37,4.31,0,.37.8.45.82,0a28.44,28.44,0,0,0-.89-7.94l.5-.05A4.07,4.07,0,0,1,200.77,239.14Z" style="fill:#9a4a4d"></path><path d="M187.75,264.89c-.68,0-1.36-.07-2-.16-13.28-1.6-21.8-10.72-20.2-24a24.15,24.15,0,0,1,4.13-10.8c-.47.7,1,3.19,1,3.19-1.71,3.33-3.28,8-2.11,12.73C170.32,253.1,175.52,260.86,187.75,264.89Z" style="opacity:0.1"></path><path d="M195.6,245.4c8.46-2.24,13.17-.14,15.28,5.46,2,5.32-2.13,13.27-11.92,14.54-5,.64-10.92.47-13.27-4.39C182.9,255.24,188,247.42,195.6,245.4Z" style="fill:#f28f8f"></path><path d="M205.14,247.73c-1.49-.89-2.83.11-3.23,1.49-1.43-1.55-4-2-5,.26s1.81,4.41,5.63,4.73C205.45,252.85,207.45,249.11,205.14,247.73Z" style="fill:#9a4a4d"></path><path d="M193.76,255.19a6.48,6.48,0,0,0,1.15,1.11,4.71,4.71,0,0,0,1.87.83,5.62,5.62,0,0,0,2.49-.08,4.44,4.44,0,0,1,1-.23c.19,0,.27.12.29.3a.66.66,0,0,1-.36.65,3.59,3.59,0,0,1-.63.25,6,6,0,0,1-1.36.27,7.61,7.61,0,0,1-1.87-.12,6.41,6.41,0,0,1-2.18-1.1,2.29,2.29,0,0,1-.82-1.13C193.28,255.66,193.44,254.84,193.76,255.19Z" style="fill:#37474f"></path><path d="M204.53,247.47a2.21,2.21,0,0,0-2.62,1.75,1.3,1.3,0,0,1,.44.79S202.43,247.33,204.53,247.47Z" style="opacity:0.1"></path><path d="M204.77,248c-.37-.09-.68-.09-.88.17s.11.5.27.69a1.51,1.51,0,0,1,.46,1c0,.22,0,.59.32.71.92.4.95-.77.69-1.63A1.43,1.43,0,0,0,204.77,248Z" style="fill:#b16668"></path><path d="M204.19,253.1a4.4,4.4,0,0,1-1.58.74c-.84.17-2.41-.63-3.84-2s-1.12-3.56,0-3.92a2.58,2.58,0,0,0-1.87,1.51c-1,2.13,1.81,4.41,5.63,4.73A7.26,7.26,0,0,0,204.19,253.1Z" style="opacity:0.1"></path><path d="M174.5,230.35a4.51,4.51,0,0,0-.29-3.27c-1.19-2.42-4.87-6.92-10.54-5.09-8.26,2.67-8.49,16.28,3.31,16.77a4.15,4.15,0,0,0,2.7-.83A14.6,14.6,0,0,0,174.5,230.35Z" style="fill:#9a4a4d"></path><path d="M174,231.93a15,15,0,0,1-2.78,4.61c-6.67,1.4-8.68-4.1-7.38-7C165.23,226.28,171.91,224.86,174,231.93Z" style="fill:#f28f8f"></path><path d="M183.37,243.43a2.9,2.9,0,1,0,3-2.83A2.9,2.9,0,0,0,183.37,243.43Z" style="fill:#263238"></path><path d="M186.83,242.76a1.23,1.23,0,1,1-1.23-1.23A1.23,1.23,0,0,1,186.83,242.76Z" style="fill:#455a64"></path><circle cx="184.84" cy="243.88" r="0.69" style="fill:#fafafa"></circle><path d="M203.25,241a2.9,2.9,0,1,0,3-2.83A2.9,2.9,0,0,0,203.25,241Z" style="fill:#263238"></path><circle cx="205.48" cy="240.34" r="1.23" style="fill:#455a64"></circle><path d="M205.41,241.46a.69.69,0,0,1-.69.69.69.69,0,1,1,0-1.38A.69.69,0,0,1,205.41,241.46Z" style="fill:#fafafa"></path></g><g id="freepik--paw--inject-22"><path d="M202.37,324.59c1.79-4.51,1.63-14.11-.54-18.94a9.15,9.15,0,0,0-11.46-5.14,7,7,0,0,0-3.59,2.76s-3.84-2.44-7.44,2.38c-2.71,3.63-1.65,6.71-.18,11.08,2.06,6.15,7,15.59,15.34,14.82Z" style="fill:#9a4a4d"></path><path d="M186.78,303.27a13.93,13.93,0,0,0-4,8.66c-.78-2.92,0-7.53,2-9.26A5.09,5.09,0,0,1,186.78,303.27Z" style="opacity:0.1"></path><path d="M194.73,303.38c2.51.13,4.47.93,6.6,4.6,1.56,2.67,2.51,8.55,1.45,14.93-.65,4-3.62,8.66-8.76,8.66s-7.33-4.31-8.45-8.3c-1-3.72-1.37-10.61,1.37-15.24A8.93,8.93,0,0,1,194.73,303.38Z" style="fill:#b16668"></path><path d="M190.47,323.9c1,3.48,3.78,5,6.15,3.46s3.47-5.68,2.45-9.16-3.77-5-6.15-3.45S189.45,320.42,190.47,323.9Z" style="fill:#f28f8f"></path><path d="M192.87,309.34c.39,1.32,1.43,1.91,2.33,1.31a3.24,3.24,0,0,0,.93-3.46c-.38-1.32-1.43-1.91-2.33-1.31A3.25,3.25,0,0,0,192.87,309.34Z" style="fill:#f28f8f"></path><path d="M198.6,313.26c.33,1.33,1.34,2,2.27,1.41a3.29,3.29,0,0,0,1.08-3.43c-.33-1.33-1.35-2-2.27-1.4A3.23,3.23,0,0,0,198.6,313.26Z" style="fill:#f28f8f"></path><path d="M190.57,314.27c-.27,1.35-1.25,2-2.2,1.52a3.26,3.26,0,0,1-1.24-3.37c.26-1.35,1.25-2,2.19-1.52A3.27,3.27,0,0,1,190.57,314.27Z" style="fill:#f28f8f"></path></g><path id="freepik--arm--inject-22" d="M178.1,264.39c-4.2-.94-9.62,1-13.64,8.19-2.73,4.88-4.47,12-2.13,16.93,3.37,7.11,7.85,10.95,15.65,11,4.41,0,8.7-1.82,9.83-5.52,1-3.4.71-7.08-3.18-9.05s-6.72-1.62-7.63-4C175.36,277.62,184.34,267,178.1,264.39Z" style="fill:#9a4a4d"></path><g id="freepik--Ribbon--inject-22"><path d="M177.52,263s-2.86.58-3.15-.27S177.52,263,177.52,263Z" style="opacity:0.2"></path><path d="M178,262.94s-3.42-5-4.08-3.9S178,262.94,178,262.94Z" style="opacity:0.2"></path><path d="M181.22,263.62s2.5,1.54,3.06.84S181.22,263.62,181.22,263.62Z" style="opacity:0.2"></path><path d="M180.8,263.44s4.88-3.55,5.13-2.25S180.8,263.44,180.8,263.44Z" style="opacity:0.2"></path><path d="M180.2,263c-.2,1.14-.3,1.71-.49,2.85a16.2,16.2,0,0,0,5.69,5.34c2.26,1.19,4.45,1.15,5.4.29a1.91,1.91,0,0,0,.55-1.77,7.72,7.72,0,0,1,1-5.3,2.43,2.43,0,0,0-.17-2.45,4.89,4.89,0,0,0-4.53-2.51C184.8,259.48,182.13,261.22,180.2,263Z" style="fill:#33A6B8"></path><path d="M180.2,263c-.2,1.14-.3,1.71-.49,2.85a16.2,16.2,0,0,0,5.69,5.34c2.26,1.19,4.45,1.15,5.4.29a1.91,1.91,0,0,0,.55-1.77,7.72,7.72,0,0,1,1-5.3,2.43,2.43,0,0,0-.17-2.45,4.89,4.89,0,0,0-4.53-2.51C184.8,259.48,182.13,261.22,180.2,263Z" style="fill:#fff;opacity:0.30000000000000004"></path><path d="M180.54,263.92s2.91-2.7,3.56-1.82S180.54,263.92,180.54,263.92Z" style="fill:#33A6B8;opacity:0.5"></path><path d="M180.38,264.87s1.82,3.67,2.71,3.16S180.38,264.87,180.38,264.87Z" style="fill:#33A6B8;opacity:0.5"></path><path d="M180,264.34s6.51-1,6.22.73S180,264.34,180,264.34Z" style="fill:#33A6B8;opacity:0.5"></path><path d="M189.8,268.23c.88,1.14,1.56,2.49,1,3.21a1.88,1.88,0,0,0,.55-1.77,7.72,7.72,0,0,1,1-5.3,2.43,2.43,0,0,0-.17-2.45c.41,1.16-.39,2.2-1.69,2.69A2.32,2.32,0,0,0,189.8,268.23Z" style="fill:#33A6B8;opacity:0.5"></path><path d="M178.73,262.7c-.2,1.14-.3,1.71-.49,2.85a15.88,15.88,0,0,1-7.12,3c-2.52.34-4.57-.46-5.18-1.59a2,2,0,0,1,.07-1.86,7.67,7.67,0,0,0,.81-5.32,2.42,2.42,0,0,1,1-2.25,4.83,4.83,0,0,1,5.09-.79A12.86,12.86,0,0,1,178.73,262.7Z" style="fill:#33A6B8"></path><path d="M178.73,262.7c-.2,1.14-.3,1.71-.49,2.85a15.88,15.88,0,0,1-7.12,3c-2.52.34-4.57-.46-5.18-1.59a2,2,0,0,1,.07-1.86,7.67,7.67,0,0,0,.81-5.32,2.42,2.42,0,0,1,1-2.25,4.83,4.83,0,0,1,5.09-.79A12.86,12.86,0,0,1,178.73,262.7Z" style="fill:#fff;opacity:0.30000000000000004"></path><path d="M178.09,263.48s-1.85-3.54-2.75-3S178.09,263.48,178.09,263.48Z" style="fill:#33A6B8;opacity:0.5"></path><path d="M177.93,264.43s-2.94,2.82-3.6,2S177.93,264.43,177.93,264.43Z" style="fill:#33A6B8;opacity:0.5"></path><path d="M178.43,264.06s-5.8-3.17-6.09-1.47S178.43,264.06,178.43,264.06Z" style="fill:#33A6B8;opacity:0.5"></path><path d="M168,264.32c-1.21.78-2.29,1.81-2,2.68a2,2,0,0,1,.07-1.86,7.67,7.67,0,0,0,.81-5.32,2.39,2.39,0,0,1,1-2.25c-.77,1-.36,2.21.7,3.12A2.31,2.31,0,0,1,168,264.32Z" style="fill:#33A6B8;opacity:0.5"></path><path d="M181.15,264.61a2.19,2.19,0,0,1-.68,1.27,1.42,1.42,0,0,1-1.18.37l-.74-.14a1.78,1.78,0,0,1-1.2-2.18,2.32,2.32,0,0,1,.18-.6,2.23,2.23,0,0,1,.5-.7,1.42,1.42,0,0,1,1.18-.38l.74.13a1.68,1.68,0,0,1,1.22,1.6A2.68,2.68,0,0,1,181.15,264.61Z" style="fill:#33A6B8"></path><path d="M181.15,264.61a2.19,2.19,0,0,1-.68,1.27,1.42,1.42,0,0,1-1.18.37l-.74-.14a1.78,1.78,0,0,1-1.2-2.18,2.32,2.32,0,0,1,.18-.6,2.23,2.23,0,0,1,.5-.7,1.42,1.42,0,0,1,1.18-.38l.74.13a1.68,1.68,0,0,1,1.22,1.6A2.68,2.68,0,0,1,181.15,264.61Z" style="opacity:0.2"></path><path d="M181.17,264a2,2,0,0,1-.49.68,1.42,1.42,0,0,1-1.18.36l-.74-.13a1.64,1.64,0,0,1-1.23-1.56,2.23,2.23,0,0,1,.5-.7,1.42,1.42,0,0,1,1.18-.38l.74.13A1.68,1.68,0,0,1,181.17,264Z" style="fill:#33A6B8"></path></g></g></g><g id="freepik--imaginary-friend--inject-22"><g id="freepik--imaginary-friend--inject-22"><path d="M450,353.66c6.35,2.28,18.32,2.59,23.68-5.33s3.46-16.55,4.57-17.19,2.82,8.61-1.65,18.65S459,363,446.66,358.93Z" style="fill:#263238"></path><path d="M478.45,337.09c-6.22.17-15-3.9-11.62-13.26,2.5-6.91,6.78-10,9.5-14.3,3.42,4.14,7.91,5.73,11.75,13.12C492.62,331.36,485.29,336.89,478.45,337.09Z" style="fill:#33A6B8"></path><path d="M478.45,337.09c-6.22.17-15-3.9-11.62-13.26,2.5-6.91,6.78-10,9.5-14.3,3.42,4.14,7.91,5.73,11.75,13.12C492.62,331.36,485.29,336.89,478.45,337.09Z" style="fill:#fff;opacity:0.30000000000000004"></path><path d="M484.08,322.06a14.9,14.9,0,0,0-2-2.82,15,15,0,0,1-2.7-3.1c-.1-.19-.23.11-.19.23.78,2,2.59,3.29,3.66,5.11a14.32,14.32,0,0,1,1.8,5.56,10.08,10.08,0,0,1-.25,3.79,10.24,10.24,0,0,1-1.88,3.39,8,8,0,0,1-2.11,2,5.59,5.59,0,0,1-1.45.66c.05-.78,0-1.58,0-2.31,0-1.63-.05-3.26-.17-4.89a64.85,64.85,0,0,0-1.6-10.75c-.06-.25-.26,0-.25.14.14,3.29.66,6.54.91,9.82.12,1.63.19,3.27.18,4.91,0,1.09-.11,2.2-.14,3.31h.57a14.43,14.43,0,0,0,3.38-.53,10.22,10.22,0,0,0,1.37-1.27,12.51,12.51,0,0,0,2-3.1,9.21,9.21,0,0,0,.61-3.49A13.91,13.91,0,0,0,484.08,322.06Z" style="fill:#33A6B8"></path><path d="M477.33,337.07c-1.49-1.29-3.08-2.28-4.19-4a11.7,11.7,0,0,1-1.66-7,18,18,0,0,1,1.67-6.06c.59-1.35,1.62-2.83,2.3-4.13a6.23,6.23,0,0,0,.93-2.69c0-.13-.14-.33-.22-.12-.85,2.22-2.56,4-4.08,6.78a15.51,15.51,0,0,0-2,7,10.8,10.8,0,0,0,2,6.7,14.47,14.47,0,0,0,3.21,3.29A15.67,15.67,0,0,0,477.33,337.07Z" style="fill:#33A6B8"></path><path d="M408.68,202.93c6.71-7.27,8.69-19,8.44-27S416.57,162,432,164s33.37,14.43,37,22-.09,10.44-3.86,9-7.65-4.6-10.06-4-.24,6.59-4.89,8.38-7.52-5-10.73-4.15-1.65,6.35-5.59,6.12-6.39-4.26-11.28-3.95-9.72,11-9.72,11Z" style="fill:#33A6B8"></path><path d="M428,215.22c7.15-6.84,9.84-18.43,10.09-26.47s.3-13.93,15.58-11,32.43,16.46,35.61,24.27-.73,10.42-4.41,8.75-7.34-5.07-9.79-4.59-.65,6.56-5.39,8.07-7.2-5.45-10.46-4.81-2,6.24-6,5.77-6.13-4.64-11-4.64-10.37,10.36-10.37,10.36Z" style="fill:#33A6B8"></path><path d="M428,215.22c7.15-6.84,9.84-18.43,10.09-26.47s.3-13.93,15.58-11,32.43,16.46,35.61,24.27-.73,10.42-4.41,8.75-7.34-5.07-9.79-4.59-.65,6.56-5.39,8.07-7.2-5.45-10.46-4.81-2,6.24-6,5.77-6.13-4.64-11-4.64-10.37,10.36-10.37,10.36Z" style="fill:#fff;opacity:0.30000000000000004"></path><path d="M332.79,155.49c.48,2.86-1.32,5.62-4.13,7.68s-10.29,4.28-17.5,2.9-7.85-3.45-7.85-3.45a34.29,34.29,0,0,1-4.08-30.26c6.43-19.72,21.43-25.83,27.55-26.42,7.41-.71,5.69,2.51,2.76,5.77s-8.57,12.78-8.13,21.69S329,150.25,332.79,155.49Z" style="fill:#33A6B8"></path><path d="M332.79,155.49c.48,2.86-1.32,5.62-4.13,7.68s-10.29,4.28-17.5,2.9-7.85-3.45-7.85-3.45a34.29,34.29,0,0,1-4.08-30.26c6.43-19.72,21.43-25.83,27.55-26.42,7.41-.71,5.69,2.51,2.76,5.77s-8.57,12.78-8.13,21.69S329,150.25,332.79,155.49Z" style="fill:#fff;opacity:0.7000000000000001"></path><g style="opacity:0.5"><path d="M300.39,129.17a14.36,14.36,0,0,0,1.83,1.66,21.69,21.69,0,0,0,7.8,3.48c3.88,1,7.8,1.35,11.5.23,0,.36.1.73.16,1.09-3.64,1.34-8,1-11.65.15a24,24,0,0,1-8.84-3.67,16.82,16.82,0,0,1-1.46-1.19C299.94,130.32,300.16,129.74,300.39,129.17Z" style="fill:#33A6B8"></path><path d="M298.55,152.12c-.19-.72-.36-1.46-.5-2.23a26.94,26.94,0,0,0,6,2,22.59,22.59,0,0,0,8.71-.2,20.4,20.4,0,0,0,7.85-3.62,35.19,35.19,0,0,0,4.21-3.87c.23.4.46.8.7,1.19a32.81,32.81,0,0,1-4.09,3.82,21.57,21.57,0,0,1-8.15,3.93,23.63,23.63,0,0,1-9.25.38A28.6,28.6,0,0,1,298.55,152.12Z" style="fill:#33A6B8"></path><path d="M313.49,123.3a12.61,12.61,0,0,1-4.21-4.67,14.24,14.24,0,0,1-.95-2.26c.4-.43.8-.85,1.21-1.25a1.57,1.57,0,0,0,0,.3,10.59,10.59,0,0,0,1,2.61,12.33,12.33,0,0,0,4,4.32,15.18,15.18,0,0,0,8,2.54c-.11.37-.21.75-.31,1.12A16.2,16.2,0,0,1,313.49,123.3Z" style="fill:#33A6B8"></path><path d="M327,115.23c-.18.28-.36.59-.53.89a11,11,0,0,1-9.27-6.13l-.27-.53c.43-.24.84-.47,1.26-.69,0,.12.09.25.15.37a10.8,10.8,0,0,0,8.66,6.09Z" style="fill:#33A6B8"></path></g><path d="M320.17,283.44l8.14-45.58c-15,1.89-30.89.19-49.16-13.56-15.47-11.64-30.34-14.88-33.91-11.22s-4.59,23.18,6,38.54C269.73,278.53,296,286.91,320.17,283.44Z" style="fill:#37474f"></path><path d="M264.5,219.6a35.33,35.33,0,0,1,4.58,5,34.66,34.66,0,0,0-3.84-5.72c-1.31-1.65-2.7-3.25-4.11-4.82a46.51,46.51,0,0,0-5.17-1.63q1.72,1.31,3.41,2.67C261.12,216.57,262.85,218.05,264.5,219.6Zm-10,13.24c-1.44-1.8-2.95-3.54-4.5-5.24s-3.16-3.36-4.81-5c-.75-.74-1.51-1.46-2.3-2.18a38.36,38.36,0,0,0-.16,4.12l.51.36c1.82,1.33,3.62,2.71,5.38,4.14s3.48,2.91,5.14,4.46a35.93,35.93,0,0,1,4.58,5A36.42,36.42,0,0,0,254.54,232.84Zm6.24-4.3a36.42,36.42,0,0,0-3.84-5.72c-1.43-1.8-2.94-3.54-4.5-5.24s-3.16-3.36-4.81-5l-.58-.55a4.29,4.29,0,0,0-1.81,1,5,5,0,0,0-.71,1c.39.27.77.53,1.15.81q2.74,2,5.38,4.14c1.76,1.43,3.48,2.91,5.14,4.46A35.33,35.33,0,0,1,260.78,228.54Z" style="fill:#263238"></path><path d="M287.14,147.4c3.25,6.59,8.54,13.33,17.68,15.18s20.56-1.07,24.92-2.46l2.52-6.8C323,153.2,303.32,146,294,142.15S283.88,140.81,287.14,147.4Z" style="fill:#37474f"></path><path d="M325,157.23a1.47,1.47,0,0,0-1.23-1.78,102.83,102.83,0,0,1-23.28-6.6c-8.18-3.55-9.82-.78-3.66,4.66,5.42,4.79,10.12,5.42,15,5.77a63.47,63.47,0,0,0,11.93-.91,1.47,1.47,0,0,0,1.2-1.14Z" style="fill:#33A6B8"></path><path d="M325,157.23a1.47,1.47,0,0,0-1.23-1.78,102.83,102.83,0,0,1-23.28-6.6c-8.18-3.55-9.82-.78-3.66,4.66,5.42,4.79,10.12,5.42,15,5.77a63.47,63.47,0,0,0,11.93-.91,1.47,1.47,0,0,0,1.2-1.14Z" style="fill:#fff;opacity:0.30000000000000004"></path><path d="M352.72,149.67c-16-5.43-31.13-5.15-44.6,6.32s-8.83,14.72-4.18,12.87A28,28,0,0,0,300,179c-.7,5.21-4.32,11.41-7.5,16.67s-6.14,19,4.25,27.76c8.74,7.34,23.23,6.87,23.23,6.87s-5.58,9.89-4.88,21.51c-7.67,11.62-15.1,27.57-9.76,44.92-12.78,0-25-.09-35.87,11.42s-3.94,32.13,4.16,44.22a104.2,104.2,0,0,0,19.17,20.88s-10.05,14.55.32,25.08,34.25,2.41,46.37-11.08c0,0,17.66,11.7,46.23,13.41s51.81-12.46,64.82-40.46,11.87-69.18,1.16-99.27c-15.23-42.78-33.53-60.48-63.41-84C371.73,163.88,366.43,155.8,352.72,149.67Z" style="fill:#455a64"></path><path d="M386.47,351.06a44.94,44.94,0,0,0-14.2-4.68c-9.87-1.65-19.91-1.16-29.73,0l-4.62.58A72.76,72.76,0,0,0,325.79,331a47.11,47.11,0,0,0-8.13-6.51,23.88,23.88,0,0,0-9.65-3.63,23.5,23.5,0,0,1,9.34,4.11,47,47,0,0,1,7.62,6.82,70.93,70.93,0,0,1,10.6,15.46l-7.71,1c-4.88.69-10,1.65-14.47,4a57.89,57.89,0,0,0-6.4,3.91,36.52,36.52,0,0,0-5.6,5,77,77,0,0,0-8.6,12.09,89.11,89.11,0,0,1,9.4-11.31,36.14,36.14,0,0,1,5.64-4.55,62.54,62.54,0,0,1,6.34-3.55,44.26,44.26,0,0,1,14-3.48c4.84-.59,9.81-1.08,14.67-1.71s9.73-1,14.61-1.15a89.81,89.81,0,0,1,14.58.66A46.68,46.68,0,0,1,386,352.05a27,27,0,0,1,6.11,3.93,24.18,24.18,0,0,1,4.74,5.57A24.49,24.49,0,0,0,386.47,351.06Zm-52.69,24.87c-.51,3.66.17,9.85,4.43,12.65l1.27-1.35C336.88,386.12,333.77,379,333.78,375.93Z" style="fill:#37474f"></path><path d="M324.2,174.56c.27-.27.52-.54.76-.81a4.87,4.87,0,0,0,1,1.42,6.13,6.13,0,0,0,2.09,1.23,6.29,6.29,0,0,0,2.36.35,4.59,4.59,0,0,0,2.37-.81,6,6,0,0,0,1.63-1.72,9.74,9.74,0,0,0,.59-1.16,7.7,7.7,0,0,0,1,1.5,4.7,4.7,0,0,0,2.24,1.41,4.86,4.86,0,0,0,2.57-.05,5.17,5.17,0,0,0,2.2-1.2,3.88,3.88,0,0,0,1.19-2.17,7.9,7.9,0,0,0-.65-4.57,8.22,8.22,0,0,1,0,4.4,3.58,3.58,0,0,1-3,2.41,3.23,3.23,0,0,1-3.39-1.23,9.24,9.24,0,0,1-1.56-3.82.89.89,0,0,0-.86-.72.9.9,0,0,0-.93.88v.1a5.75,5.75,0,0,1-.35,1.58,6.9,6.9,0,0,1-.76,1.54,3,3,0,0,1-2.43,1.48,4.74,4.74,0,0,1-1.52-.27,3.92,3.92,0,0,1-1.29-.77,2.54,2.54,0,0,1-.71-1.19,3.46,3.46,0,0,1-.11-1.41,1.16,1.16,0,0,0-.6-1.19,1.14,1.14,0,0,0-1.54.49h0a10.74,10.74,0,0,1-1.92,2.66,3.56,3.56,0,0,1-2.5,1.17,3.36,3.36,0,0,1-1.32-.34,2.3,2.3,0,0,1-1-.78,3.05,3.05,0,0,1,0-2.62l0,0a1,1,0,0,0-1.7-1,12.26,12.26,0,0,1-2.71,2.57,6.64,6.64,0,0,1-1.61.78,4.31,4.31,0,0,1-1.67.14,3.43,3.43,0,0,1-1.51-.65,2.13,2.13,0,0,1-.71-1.38,6.41,6.41,0,0,1,.9-3.61l0,0a.33.33,0,0,0,0-.38.35.35,0,0,0-.49-.06,12.18,12.18,0,0,1-2.07,1.29,10.5,10.5,0,0,1-2.33.86,9.61,9.61,0,0,0,2.47-.51,12.44,12.44,0,0,0,1.2-.47,6.3,6.3,0,0,0-.82,3,3.3,3.3,0,0,0,1,2.24,4.74,4.74,0,0,0,2.11,1.16,5.31,5.31,0,0,0,2.38,0,8,8,0,0,0,2.12-.87,12.83,12.83,0,0,0,1.21-.82,3.94,3.94,0,0,0,.5,1.48,4.46,4.46,0,0,0,1.79,1.64,5.42,5.42,0,0,0,2.23.59A5.78,5.78,0,0,0,324.2,174.56ZM320,230.28a33.83,33.83,0,0,0-1.6,3.43c11.5.42,28.91-2.56,33.53-12.23C346.3,227.65,331.71,230.59,320,230.28Z" style="fill:#263238"></path><path d="M351,251.46c-15.75-3.7-30.37,12.51-32.36,29.47s3.44,38.46,30.54,49.28c22.8,9.09,38.95-5.71,39.4-22.71C389.4,274,369.54,255.83,351,251.46Z" style="fill:#33A6B8"></path><path d="M351,251.46c-15.75-3.7-30.37,12.51-32.36,29.47s3.44,38.46,30.54,49.28c22.8,9.09,38.95-5.71,39.4-22.71C389.4,274,369.54,255.83,351,251.46Z" style="fill:#fff;opacity:0.8"></path><path d="M339.26,266.75a10,10,0,0,0-.46-1.15,6.48,6.48,0,0,0-1.38-1.9,4.34,4.34,0,0,0-5-.53,5.06,5.06,0,0,0-2.43,2.68,1.13,1.13,0,0,0-.1.57.45.45,0,0,0,.37.4.66.66,0,0,0,.42-.17c1.14-.81,2.51-1.68,4-1.51a4.88,4.88,0,0,1,2.78,1.38C337.91,267,339.82,268.58,339.26,266.75Z" style="fill:#455a64"></path><path d="M352.44,273.83a10,10,0,0,0-.46-1.15,6.14,6.14,0,0,0-1.38-1.9,4.33,4.33,0,0,0-5-.53,5.08,5.08,0,0,0-2.44,2.68,1.13,1.13,0,0,0-.1.57.45.45,0,0,0,.38.4.7.7,0,0,0,.42-.17c1.13-.81,2.5-1.68,4-1.51a4.88,4.88,0,0,1,2.77,1.38C351.1,274.05,353,275.66,352.44,273.83Z" style="fill:#455a64"></path><path d="M367.23,271.72a9.25,9.25,0,0,0-.46-1.15,6.48,6.48,0,0,0-1.38-1.9,4.34,4.34,0,0,0-5-.53,5.06,5.06,0,0,0-2.43,2.68,1,1,0,0,0-.1.57.45.45,0,0,0,.37.4.66.66,0,0,0,.42-.17c1.14-.81,2.51-1.68,4-1.51a4.82,4.82,0,0,1,2.77,1.38C365.88,271.94,367.79,273.55,367.23,271.72Z" style="fill:#455a64"></path><path d="M354.42,261.43a9.65,9.65,0,0,0-.47-1.15,6.27,6.27,0,0,0-1.37-1.9,4.34,4.34,0,0,0-5-.53,5.08,5.08,0,0,0-2.44,2.68,1.13,1.13,0,0,0-.1.57.45.45,0,0,0,.38.4.7.7,0,0,0,.42-.17c1.13-.81,2.5-1.68,4-1.51a4.88,4.88,0,0,1,2.77,1.38C353.07,261.65,355,263.26,354.42,261.43Z" style="fill:#455a64"></path><path d="M433.73,256.49l-52.41-3.67c3.95,16.71,3.95,34.82-9.35,57.1-11.26,18.86-13.11,36-8.55,39.6s26.71,2.38,42.75-11.4C434.29,314,440.57,283.35,433.73,256.49Z" style="fill:#455a64"></path><path d="M381.32,252.82a73,73,0,0,1,1.58,29.69c-1.63,9.9-5.65,19.25-10.69,27.86a94.58,94.58,0,0,0-6.5,13.35A61.83,61.83,0,0,0,361.89,338a25.08,25.08,0,0,0,0,7.29,7.57,7.57,0,0,0,1.26,3.21,5,5,0,0,0,2.89,1.61,25.82,25.82,0,0,0,7.26.55,50.35,50.35,0,0,0,7.32-.93,55.07,55.07,0,0,0,26.22-12.93,93.49,93.49,0,0,0,18.93-22.73,77.22,77.22,0,0,0,6.13-13.52c.89-2.31,1.43-4.74,2.1-7.13.29-1.2.48-2.43.73-3.64l.35-1.83c.1-.61.15-1.23.24-1.84l.45-3.7.2-3.72a35.51,35.51,0,0,0,0-3.72c0-1.24,0-2.49-.1-3.73a89.65,89.65,0,0,0-2.2-14.74,89.44,89.44,0,0,1,2.48,14.72c.13,1.25.11,2.5.17,3.74a35.91,35.91,0,0,1,0,3.74l-.12,3.75-.39,3.73c-.07.62-.12,1.24-.22,1.86l-.33,1.84c-.24,1.23-.41,2.47-.7,3.69a74.91,74.91,0,0,1-2,7.21,78.75,78.75,0,0,1-6,13.72,92,92,0,0,1-19,23.08,56.16,56.16,0,0,1-26.68,13.27,50.91,50.91,0,0,1-7.49.92,27.43,27.43,0,0,1-7.59-.6,9.81,9.81,0,0,1-1.86-.7,4.35,4.35,0,0,1-1.61-1.32,8.84,8.84,0,0,1-1.45-3.67,26.22,26.22,0,0,1,0-7.61,62.46,62.46,0,0,1,3.92-14.5,90.37,90.37,0,0,1,6.67-13.44c5.09-8.49,9.16-17.71,10.9-27.51A72.74,72.74,0,0,0,381.32,252.82Z" style="fill:#37474f"></path><path d="M379,330.13a40.87,40.87,0,0,0-6,5c-1.85,1.84-3.63,3.75-5.37,5.71s-3.4,4-5,6c-.19.23-.37.48-.55.72a4.79,4.79,0,0,0,1.38,1.91,4.89,4.89,0,0,0,1.23.68c.26-.46.5-.93.77-1.39q1.92-3.33,4-6.57c1.4-2.16,2.86-4.28,4.41-6.34A39.58,39.58,0,0,1,379,330.13ZM368.44,327a40.18,40.18,0,0,1,5.13-5.78,40.9,40.9,0,0,0-6,5c-1.71,1.69-3.34,3.44-4.94,5.23a51,51,0,0,0-1.21,6q1.26-2.1,2.59-4.17C365.44,331.19,366.89,329.07,368.44,327Zm16.15,9.64c-1.86,1.84-3.64,3.75-5.37,5.71s-3.41,4-5,6c-.74.93-1.46,1.88-2.18,2.85a44,44,0,0,0,4.67-.31c.12-.21.22-.42.34-.62q1.92-3.33,4-6.57c1.41-2.16,2.87-4.28,4.41-6.34a39.58,39.58,0,0,1,5.13-5.77A40.28,40.28,0,0,0,384.59,336.65Z" style="fill:#37474f"></path><path d="M354.59,150.54c-1.59,2.43-1,5.68.69,8.69s7.7,8.06,14.86,9.7,8.57,0,8.57,0a34.28,34.28,0,0,0,15.91-26.06c2-20.64-9.22-32.27-14.59-35.27-6.5-3.63-6.22,0-4.84,4.17s2.7,15.14-1.3,23.12S360.22,147.29,354.59,150.54Z" style="fill:#33A6B8"></path><path d="M354.59,150.54c-1.59,2.43-1,5.68.69,8.69s7.7,8.06,14.86,9.7,8.57,0,8.57,0a34.28,34.28,0,0,0,15.91-26.06c2-20.64-9.22-32.27-14.59-35.27-6.5-3.63-6.22,0-4.84,4.17s2.7,15.14-1.3,23.12S360.22,147.29,354.59,150.54Z" style="fill:#fff;opacity:0.7000000000000001"></path><g style="opacity:0.5"><path d="M394.84,139.48a14,14,0,0,1-2.34.78,21.73,21.73,0,0,1-8.54.05c-3.95-.67-7.68-1.9-10.62-4.42-.19.32-.38.63-.58.94,2.79,2.69,7,4.1,10.6,4.82a23.92,23.92,0,0,0,9.57.2,16.94,16.94,0,0,0,1.82-.5C394.79,140.72,394.82,140.09,394.84,139.48Z" style="fill:#33A6B8"></path><path d="M387.3,161.23c.45-.58.91-1.19,1.35-1.84a26.11,26.11,0,0,1-6.31-.64,22.49,22.49,0,0,1-7.9-3.68,20.28,20.28,0,0,1-5.72-6.47,35.76,35.76,0,0,1-2.3-5.24c-.37.28-.75.55-1.12.81a33.4,33.4,0,0,0,2.2,5.14,21.73,21.73,0,0,0,5.88,6.88,23.82,23.82,0,0,0,8.32,4.07A28.73,28.73,0,0,0,387.3,161.23Z" style="fill:#33A6B8"></path><path d="M385.21,128.83a12.49,12.49,0,0,0,5.74-2.58,15,15,0,0,0,1.77-1.68c-.19-.56-.39-1.1-.6-1.63a1.84,1.84,0,0,1-.17.25,10.55,10.55,0,0,1-2,2,12.26,12.26,0,0,1-5.37,2.36,15.1,15.1,0,0,1-8.37-.91c-.05.39-.11.77-.17,1.15A16.1,16.1,0,0,0,385.21,128.83Z" style="fill:#33A6B8"></path><path d="M376.12,116c.05.33.09.67.13,1a11,11,0,0,0,10.95-1.88l.46-.38c-.29-.39-.58-.77-.87-1.13l-.29.27a11.09,11.09,0,0,1-3.68,2.08A11,11,0,0,1,376.12,116Z" style="fill:#33A6B8"></path></g><path d="M335.83,185.43c-4.15-.39-6.94,3.86-6.2,4.67s3.7-.88,6-.74,4.43,2.51,5.37,2S340.53,185.87,335.83,185.43Z"></path><path d="M301.51,181.57c-4.16-.39-6.94,3.86-6.2,4.68s3.69-.89,6-.74,4.43,2.51,5.37,2S306.21,182,301.51,181.57Z"></path><path d="M306.24,207.12c-7-1.1-9.88-.17-10.49,2.54s6.32,8.3,8.19,8.65,11.21-1.69,11.92-5.16C316.38,210.57,312.88,208.17,306.24,207.12Z"></path><ellipse cx="339.36" cy="200.55" rx="9" ry="5.74" style="fill:#33A6B8;opacity:0.30000000000000004"></ellipse><path d="M301.06,193.85c0,3.17-4,5.74-9,5.74s-9-2.57-9-5.74,4-5.74,9-5.74S301.06,190.68,301.06,193.85Z" style="fill:#33A6B8;opacity:0.30000000000000004"></path><path d="M395,156.5c-9.9,1.72-30.71,4.59-39.75,2.73l1,7.19c4,2.29,14.49,7.59,23.82,7.73s15.93-5.31,20.52-11.05S404.93,154.78,395,156.5Z" style="fill:#455a64"></path><path d="M356.29,166.42a72.65,72.65,0,0,0,12,5.13,37.74,37.74,0,0,0,12.75,2.15,22.49,22.49,0,0,0,12-4.07,31.44,31.44,0,0,0,4.85-4.23,35.62,35.62,0,0,0,4-5,5.08,5.08,0,0,0,1-2.67c0-.71-1-1.05-2-1.13a27.33,27.33,0,0,0-6.38.56c-4.32.71-8.66,1.35-13,1.81s-8.72.86-13.1,1a56.87,56.87,0,0,1-13.1-.73,60.75,60.75,0,0,0,13.07.17c4.36-.28,8.7-.76,13-1.34s8.65-1.2,12.95-2a28.06,28.06,0,0,1,6.65-.62,5.17,5.17,0,0,1,1.78.42,2.07,2.07,0,0,1,1.27,1.66,3.65,3.65,0,0,1-.35,1.87,10.19,10.19,0,0,1-.8,1.54,37.51,37.51,0,0,1-4.19,5.18,31.64,31.64,0,0,1-5.05,4.33,22.68,22.68,0,0,1-12.56,4.09,38.09,38.09,0,0,1-12.95-2.49A68.11,68.11,0,0,1,356.29,166.42Z" style="fill:#37474f"></path><path d="M361.55,164.6a1.45,1.45,0,0,1,1.58-1.46,103.27,103.27,0,0,0,24.15-1.47C396,160,397,163,389.87,167c-6.33,3.52-11.05,3.13-15.93,2.42A64.15,64.15,0,0,1,362.48,166a1.49,1.49,0,0,1-.93-1.38Z" style="fill:#33A6B8"></path><path d="M361.55,164.6a1.45,1.45,0,0,1,1.58-1.46,103.27,103.27,0,0,0,24.15-1.47C396,160,397,163,389.87,167c-6.33,3.52-11.05,3.13-15.93,2.42A64.15,64.15,0,0,1,362.48,166a1.49,1.49,0,0,1-.93-1.38Z" style="fill:#fff;opacity:0.30000000000000004"></path></g></g><g id="freepik--Character--inject-22"><g id="freepik--character--inject-22"><g id="freepik--Bottom--inject-22"><path d="M48.84,386c-1.27-1.41,2.77-7.11,9.09-8.41,5-1,7.35-.31,10.95-.13s8.79-1,11.77-1.52c7.35-1.25,9.57,3.31,9.2,4.13-.85,1.89-3,2.67-7.06,4.56S58.55,388,48.84,386Z" style="fill:#455a64"></path><path d="M48.84,386s.67-4,8.89-2.81c5.38.78,15.08.57,18-.06,3.85-.84,8.83-4.85,13-3.59,1.91,2.21,1.48,4.59,1.26,8,9.17,3.11,28.64,8.29,28.64,8.29l24,18.16c-9.13,3.22-25.5,2.48-38.83-3C96,407.71,89.18,403.1,82.16,399c-3.79-2.21-6.72-3.73-8.35-4.12-4-1-9.72-2.6-15-4.32l0,0C54.79,389.47,50.78,387.68,48.84,386Z" style="fill:#ffa8a7"></path><path d="M172,380.92c-1.57-6.48-8.62-14.34-15.29-19.68-8.91-7.13-27.21-18.41-27.21-18.41l-.18,1.57h0l-48-5.38c-2.49,6.53-4.93,19.7-4.12,28.79.76,8.46,3,18.54,18.79,28.19,9.59,5.86,13.73,10.3,20.81,13.23,7.68,3.18,18.21,8.57,28.35,3.78,5.84-2.75,9.49-6.83,8.93-13.6h0c1.26.62,8.74,1.26,13.46-2C172,394.39,173.67,387.64,172,380.92Z" style="fill:#ffa8a7"></path><path d="M157.25,399.9a10.08,10.08,0,0,1-3.11-.49c-2.86-11.24-15.27-18.64-33-30.54,6.69-2,12.47-10,12.47-10-.56,6.06-3.23,9.11-5.53,10.76,4,3,11.37,6.44,17.88,12.69C150.3,386.44,155.92,391.67,157.25,399.9Z" style="fill:#f28f8f"></path><path d="M164.38,368.41c1.1,1.22,2.14,2.47,3.08,3.73-8.5-.14-21,2.17-37.49,16.71-10.47,9.2-12.18,17.47-12.18,17.47l-4.08-1.23C117.64,391.46,135,370.88,164.38,368.41Z" style="fill:#f28f8f"></path><path d="M122.73,406.94c-5.84,1.09-17.74-1.82-25.08-7.15-2.33-1.7-8.28-5.81-11.63-11.23-1-1.55,21.81,12.68,21.81,12.68S115.91,405.67,122.73,406.94Z" style="fill:#f28f8f"></path><path d="M91.94,390.38c-4.74,2.44-7.24,7.93-5.9,10.94l1.17.71s.75,1.5-3.58-1-6.71-4.13-8.41-4.95a76.93,76.93,0,0,0-12.31-3.87c-6.37-1.6-13.54-3.89-14.29-6.71,2.84-3.4,4.74-3.16,9.33-2.82s9.86,1.49,14.11.3,10-4.9,13-4.93c1.69,0,3.69,0,4.84,2.05s.48,6.95.48,6.95,4.27,1.38,4.84,1.53.83.88.83.88l-1.24-.38A13.94,13.94,0,0,0,91.94,390.38Z" style="fill:#37474f"></path></g><g id="freepik--Top--inject-22"><path d="M138.38,338.66c-7.64-8.4-14.9-17.15-14.9-17.15l-5.77-28.28a25.05,25.05,0,0,1,17,8.37c5.5,6.48,14.35,19.58,14.35,19.58s7.6-12.41,8.92-15a20.57,20.57,0,0,0,.94-3.13c1.24-5.1,4.64-9.27,8.17-13,.6-.64,1.21-1.27,1.83-1.9a11,11,0,0,0,.86-.95c.24-.32.46-.59.93-.41a1.46,1.46,0,0,1,.74.75,4.26,4.26,0,0,1,0,3.48,21.22,21.22,0,0,1-1.76,3.11c-.48.78.56.69,1,.57,2.37-.59,5.1-3.35,6.8-5a30.89,30.89,0,0,1,3.3-3.37,4.78,4.78,0,0,1,2.7-1c.67,0,1.28.2,1.22,1a3.43,3.43,0,0,1-.62,1.41,3.56,3.56,0,0,0-.76,2.83,8.83,8.83,0,0,1,.46,2.07,24.55,24.55,0,0,1-.67,2.62,21.58,21.58,0,0,0,.23,2.3,6.67,6.67,0,0,1-1.1,2.54,21.85,21.85,0,0,1-3.45,4.54A42.15,42.15,0,0,1,172,310a15.21,15.21,0,0,0-3.89,4.57c-.89,1.69-2.14,5.06-2.72,6.6-.72,1.89-9.37,21.68-12.44,23.62C150.81,346.11,146,347.06,138.38,338.66Z" style="fill:#ffa8a7"></path><path d="M169.37,296.65a10.64,10.64,0,0,1-1.74,9.59s2.33-.79,2.88-4.45C171,298.49,170.16,297.59,169.37,296.65Z" style="fill:#f28f8f"></path><g id="freepik--Chest--inject-22"><path d="M137.06,346.44a53,53,0,0,0-5.23-10.34c-.32-9.09-.48-13.35-1.22-22.24-.64-7.65-3.14-18.5-13.78-20.85s-15-.76-22.12.95c-8.14,2-11.91,3.27-11.91,3.27a21.39,21.39,0,0,0-8.24,14.34c-1.52,13-2.66,41.75-.63,53.49s3,21.14,22.79,31.92c13.16,7.16,21.19,9,21.19,9s-4.11-11,23.25-27.91a48.5,48.5,0,0,1,25.11-7.39,61.31,61.31,0,0,0-13.35-13.23C143.47,350.73,138.89,348.81,137.06,346.44Z" style="fill:#33A6B8"></path><path d="M137.06,346.44a53,53,0,0,0-5.23-10.34c-.32-9.09-.48-13.35-1.22-22.24-.64-7.65-3.14-18.5-13.78-20.85s-15-.76-22.12.95c-8.14,2-11.91,3.27-11.91,3.27a21.39,21.39,0,0,0-8.24,14.34c-1.52,13-2.66,41.75-.63,53.49s3,21.14,22.79,31.92c13.16,7.16,21.19,9,21.19,9s-4.11-11,23.25-27.91a48.5,48.5,0,0,1,25.11-7.39,61.31,61.31,0,0,0-13.35-13.23C143.47,350.73,138.89,348.81,137.06,346.44Z" style="opacity:0.2"></path></g><path id="freepik--arm--inject-22" d="M65.66,339.66s2.1-17.11,3.08-25.13,4-14.84,14.06-17.3c0,0,6.46,6.8,6.44,15.84s-4.48,34.56-4.48,34.56,8.8,14.13,16.08,20.67c1.24,1,4,2,7,2.62,4.22.88,9.13,1.91,9.06,4-.08,2.22-5.76,1.8-7.4,1.83-2.62,0,1.75,2.29,10.29,4.86,6.91,2.08-2.58,10.16-12.1,9.41-4-.32-8.16-2.53-13.62-7a114.5,114.5,0,0,1-24.6-27.4C65.35,349.83,65.37,346.3,65.66,339.66Z" style="fill:#ffa8a7"></path></g><g id="freepik--head--inject-22"><path d="M97.17,242a6.62,6.62,0,0,0-.36-5.3,6.49,6.49,0,0,0-6.73-3.12c-1.36.27-2.66,1-4,.85-2.67-.25-4.53-3.66-7.44-2.59a7.56,7.56,0,0,0-3.15,2.69,13.8,13.8,0,0,1-2.81,3.09,8.65,8.65,0,0,1-4.29,1.3,5,5,0,0,0-5,3.34c-.78,2.22,1.41,4.62.85,6.91-.42,1.73-2.12,2.76-3.59,3.75s-3,2.44-2.81,4.2c.18,1.59,1.7,2.64,3.1,3.4s3,1.63,3.44,3.16c.63,2.08-1.13,4.38-.39,6.42.54,1.52,2.25,2.27,3.83,2.54s3.26.25,4.71,1A20.3,20.3,0,0,1,75.6,276a4.13,4.13,0,0,0,3.65,1c1.68-.57,2.33-2.65,3.83-3.59,2-1.22,4.79-.15,6.68-1.49s1.73-4,1.15-6.15-1.43-4.47-.53-6.51A7.34,7.34,0,0,1,93.93,256a13.54,13.54,0,0,0,4-2.61c1.09-1.2,1.57-3.14.59-4.43a3.3,3.3,0,0,0-1.3-1c-.38-.15-.64-.2-.85-.59a5.39,5.39,0,0,1-.31-3.18c.07-.57.55-1,.8-1.55C97,242.43,97.09,242.22,97.17,242Z" style="fill:#263238"></path><path d="M83.7,240.64c-3.42,2.69-7.5,8.56-4.76,12.8,4.23,3.09,9.38-2.78,11.26-6.29C92.42,241.88,89.41,236.12,83.7,240.64Z" style="fill:#33A6B8"></path><path d="M127,245.1c5.93,9.93,1.76,19.15-.46,20.79L91.79,289.3c-2.38-5.44-10.41-7.9-14.37-19.37-2.29-6.64-.86-17.19,5-20.86C86.3,233.26,116.94,228.35,127,245.1Z" style="fill:#263238"></path><path d="M84.53,279.36c-1.88-.66-3.46-2.74-4.24-4.25-1.31-2.53-1.3-6.31-.43-7.85a5.24,5.24,0,0,1,5.35-2.6c1.8.29,2.52,1.29,3.33,2.71.51.89,1.36,3.18,2.62,2.76,1.86-.61,1.11-4.48,1.14-6.37.13-11.37,8.5-16.47,16.94-15.78,7.82-3.48,13.24.6,15.87,6.31,2,4.26.55,8.86.86,10.19a21.66,21.66,0,0,1,1.59,6.37c.48,3.71.5,8-2.71,12.52-2.49,3.49-7.2,6.29-12.76,6.86h0l0,6.92c7.31,7.79-13.89,10.28-21-.68l-.72-18.38S87.65,280.47,84.53,279.36Z" style="fill:#ffa8a7"></path><path d="M112.09,290.2a28.57,28.57,0,0,1-13.79-2.37c-2.28-1.08-4.5-3.44-6-6.91a8.77,8.77,0,0,0,3.86,8.43c5.9,4,15.94,3.79,15.94,3.79Z" style="fill:#f28f8f"></path><path d="M120,256.12l4.25,1.79a2.39,2.39,0,0,0-1.23-3.1A2.3,2.3,0,0,0,120,256.12Z" style="fill:#263238"></path><path d="M99.26,260.53l3.66-2.82a2.29,2.29,0,0,0-3.24-.5A2.4,2.4,0,0,0,99.26,260.53Z" style="fill:#263238"></path><path d="M107.16,265.84a2.21,2.21,0,1,1-2.52-1.86A2.22,2.22,0,0,1,107.16,265.84Z" style="fill:#263238"></path><path d="M124.83,264.4a2.21,2.21,0,1,1-2.52-1.86A2.22,2.22,0,0,1,124.83,264.4Z" style="fill:#263238"></path><path d="M107.78,275.83c1.07-1.05,2,.31,4.26.74s3.64-.77,4,.72c.33,1.25-1.16,3.86-5,3.4C107.89,280.31,106.83,276.77,107.78,275.83Z" style="fill:#b16668"></path><path d="M112,276.57a31.63,31.63,0,0,1-3.12-1.09l-.09,1.06a4.88,4.88,0,0,0,2.47,1.11,6.71,6.71,0,0,0,3.63-.14l.32-1A16.66,16.66,0,0,1,112,276.57Z" style="fill:#fafafa"></path><path d="M111.13,280.69a5.8,5.8,0,0,0,2.07-.08,4.31,4.31,0,0,0-5.49-2.52A4.17,4.17,0,0,0,111.13,280.69Z" style="fill:#f28f8f"></path><path d="M131.39,270.15a3.44,3.44,0,0,1-3.57,3.35,3.49,3.49,0,0,1-3.25-3.69,3.44,3.44,0,0,1,3.56-3.35A3.5,3.5,0,0,1,131.39,270.15Z" style="fill:#f28f8f"></path><path d="M95.62,273.08a3.9,3.9,0,0,0,4.8,2.83,4,4,0,0,0,2.71-5,3.9,3.9,0,0,0-4.79-2.83A4,4,0,0,0,95.62,273.08Z" style="fill:#f28f8f"></path><path d="M104.55,272.38a6,6,0,1,1,5.72-6.23A6,6,0,0,1,104.55,272.38Zm-.46-11.05a5.08,5.08,0,1,0,5.29,4.86A5.09,5.09,0,0,0,104.09,261.33Z" style="fill:#455a64"></path><path d="M122.82,270.59a5.8,5.8,0,1,1,5.55-6A5.82,5.82,0,0,1,122.82,270.59Zm-.45-10.69a4.9,4.9,0,1,0,5.11,4.69A4.9,4.9,0,0,0,122.37,259.9Z" style="fill:#455a64"></path><path d="M111.33,262.22l2,10,5.07-2.33C115.75,265.48,113.33,262.46,111.33,262.22Z" style="fill:#f28f8f"></path><path d="M110.24,265.75l-.87-.22a4.19,4.19,0,0,1,4-3.15h0a4.23,4.23,0,0,1,4.27,2.7l-.84.3a3.34,3.34,0,0,0-3.39-2.11h0A3.3,3.3,0,0,0,110.24,265.75Z" style="fill:#455a64"></path><path d="M115.11,238.82c5.57.89,11.43,6.44,12.87,13.79-2,1.59-5.35,1-7.83,1.2-1.61.09-1.44-2.58-2.46-3.71-2.51-3.8.3,4-2.29,5a41.46,41.46,0,0,1-8.72,1.76c-3.4.26-3.06-1-3.14-5.37-.16-2.46-2,2.7-2.19,3.51s-.17,1.15-1.77,1.37a17.51,17.51,0,0,1-8.71-.68,17.21,17.21,0,0,1,2-9.94C97.15,238.94,108.6,237.65,115.11,238.82Z" style="fill:#263238"></path></g></g></g><g id="freepik--Table--inject-22"><g id="freepik--table--inject-22"><path d="M188.14,398.18a9,9,0,0,0-4.66,0c-.64.21-1,.48-1,.75L180.1,441h0c0,.19.23.37.68.51a6.33,6.33,0,0,0,3.29,0c.45-.14.67-.32.68-.51h0l4.35-42.09C189.1,398.66,188.78,398.39,188.14,398.18Zm119.5.75c0-.27-.32-.54-1-.75a8.94,8.94,0,0,0-4.65,0c-.64.21-1,.48-1,.75L305.41,441h0c0,.19.23.37.68.51a6.33,6.33,0,0,0,3.29,0c.45-.14.67-.32.68-.51h0Zm-60,6.83a9.84,9.84,0,0,0-5.11,0c-.7.23-1.06.52-1.06.82l1.06,53.79h0c0,.2.25.41.74.56a6.91,6.91,0,0,0,3.61,0c.49-.15.74-.36.75-.56h0l1.06-53.79C248.65,406.28,248.3,406,247.59,405.76Z" style="fill:#37474f"></path><g id="freepik--table--inject-22"><g id="freepik--table--inject-22"><path d="M190.31,351.23c30.26-17.48,79.33-17.48,109.59,0,15.14,8.73,22.69,20.18,22.68,31.63v2.23c0,11.45-7.54,22.9-22.68,31.64-30.26,17.47-79.33,17.47-109.59,0-15.14-8.74-22.69-20.19-22.68-31.64v-2.23C167.62,371.41,175.18,360,190.31,351.23Z" style="fill:#455a64"></path><path d="M190.24,345.42c30.26-17.48,79.33-17.48,109.6,0,15.13,8.73,22.68,20.18,22.68,31.64v3.81c0,11.45-7.55,22.9-22.68,31.64-30.27,17.47-79.34,17.47-109.6,0-15.13-8.74-22.69-21.78-22.68-33.23v-2.22C167.55,365.6,175.11,354.15,190.24,345.42Z" style="fill:#33A6B8"></path><g style="opacity:0.30000000000000004"><path d="M190.24,345.42c30.26-17.48,79.33-17.48,109.6,0,15.13,8.73,22.68,20.18,22.68,31.64v3.81c0,11.45-7.55,22.9-22.68,31.64-30.27,17.47-79.34,17.47-109.6,0-15.13-8.74-22.69-21.78-22.68-33.23v-2.22C167.55,365.6,175.11,354.15,190.24,345.42Z" style="fill:#fff"></path></g><path d="M299.84,408.69c30.26-17.47,30.26-45.8,0-63.27s-79.34-17.48-109.6,0-30.27,45.8,0,63.27S269.57,426.17,299.84,408.69Z" style="fill:#33A6B8"></path><g style="opacity:0.65"><ellipse cx="245.04" cy="377.06" rx="77.5" ry="44.74" style="fill:#fff"></ellipse></g></g></g></g><g id="freepik--Cup--inject-22"><ellipse id="freepik--shadow--inject-22" cx="198.75" cy="387.68" rx="20.25" ry="11.69" style="fill:#33A6B8;opacity:0.2"></ellipse><g id="freepik--Mug--inject-22"><g id="freepik--Plate--inject-22"><path d="M212.51,377.85c-7.6-4.38-19.92-4.38-27.52,0-3.8,2.2-5.7,5.07-5.7,7.95v.81c0,2.88,1.9,5.75,5.7,7.95,7.6,4.38,19.92,4.38,27.52,0,3.8-2.2,5.69-5.07,5.69-7.95v-.8C218.21,382.93,216.31,380.05,212.51,377.85Z" style="fill:#33A6B8"></path><path d="M212.51,377.85c-7.6-4.38-19.92-4.38-27.52,0-3.8,2.2-5.7,5.07-5.7,7.95v.81c0,2.88,1.9,5.75,5.7,7.95,7.6,4.38,19.92,4.38,27.52,0,3.8-2.2,5.69-5.07,5.69-7.95v-.8C218.21,382.93,216.31,380.05,212.51,377.85Z" style="fill:#fff;opacity:0.30000000000000004"></path><path d="M192.29,396.4V375.2a24.28,24.28,0,0,0-7.3,2.65c-3.8,2.2-5.7,5.07-5.7,7.95v.81c0,2.88,1.9,5.75,5.7,7.95a25.49,25.49,0,0,0,8.92,2.94C192.37,397.23,192.29,396.4,192.29,396.4Z" style="opacity:0.1"></path><path d="M212.51,377.85c-7.6-4.38-19.92-4.38-27.52,0s-7.6,11.51,0,15.89,19.92,4.39,27.52,0S220.11,382.24,212.51,377.85Z" style="fill:#fff"></path><path d="M208.82,380.39c-5.56-3.22-14.59-3.22-20.15,0s-5.57,8.42,0,11.63,14.59,3.22,20.15,0S214.39,383.6,208.82,380.39Z" style="fill:#33A6B8"></path><path d="M208.82,380.39c-5.56-3.22-14.59-3.22-20.15,0s-5.57,8.42,0,11.63,14.59,3.22,20.15,0S214.39,383.6,208.82,380.39Z" style="fill:#fff;opacity:0.5"></path><path d="M207.58,381.66c-4.88-2.81-12.79-2.81-17.66,0s-4.88,7.38,0,10.2,12.78,2.81,17.66,0S212.45,384.48,207.58,381.66Z" style="fill:#fff"></path><path d="M184.87,393.09A22.89,22.89,0,0,0,190,395a31.59,31.59,0,0,0,5.38.87,35.41,35.41,0,0,0,5.45,0,33.58,33.58,0,0,0,5.37-.87,23.82,23.82,0,0,0,5.08-1.88,13.76,13.76,0,0,0,4.27-3.25,8.06,8.06,0,0,0,1.37-2.29,6,6,0,0,0,.39-2.63,6.52,6.52,0,0,0-.72-2.58,8,8,0,0,0-.72-1.16,10.88,10.88,0,0,0-.87-1.06,11.24,11.24,0,0,1,.94,1,9.9,9.9,0,0,1,.77,1.14,6.91,6.91,0,0,1,.86,2.63,6.69,6.69,0,0,1-.33,2.77,8.49,8.49,0,0,1-1.38,2.43,11.13,11.13,0,0,1-2,1.93,16,16,0,0,1-2.34,1.49,23.71,23.71,0,0,1-5.19,1.94,32.94,32.94,0,0,1-11,.79,29.19,29.19,0,0,1-5.41-1,23.58,23.58,0,0,1-2.6-.92A19.48,19.48,0,0,1,184.87,393.09Z" style="fill:#fff"></path><path d="M205.75,381.88a15.51,15.51,0,0,0-14,0c-3.87,2.24-3.87,5.86,0,8.1a15.51,15.51,0,0,0,14,0C209.62,387.74,209.62,384.12,205.75,381.88Z" style="fill:#f0f0f0"></path><path d="M205.73,388.58,193,381.51l-13.69,4.32c0,2.86,1.91,5.73,5.7,7.91a24.29,24.29,0,0,0,7.3,2.66Z" style="opacity:0.1"></path></g><g id="freepik--mug--inject-22"><path d="M178.63,377.53c0,3,2.87,4.53,5.08,5.46,1.66.7,2.92.93,3.79,1.64-.08-.41-2-10.53-2-10.53a4.64,4.64,0,0,0-2.66-.7,3.49,3.49,0,0,0-1.62.45l-1,.59A3.32,3.32,0,0,0,178.63,377.53Zm2.94-.59a1.81,1.81,0,0,1,.44-1.16,1.87,1.87,0,0,1,.34,0,3,3,0,0,1,2.16.84,28.8,28.8,0,0,1,1.19,4.3l-.28-.11C182.65,379.61,181.57,378.43,181.57,376.94Z" style="fill:#fafafa"></path><path d="M178.63,377.53c0,3,2.87,4.53,5.08,5.46,1.66.7,2.92.93,3.79,1.64a60.25,60.25,0,0,0-3-9.94,4.64,4.64,0,0,0-2.66-.7A3.23,3.23,0,0,0,178.63,377.53Zm1.91,0a1.8,1.8,0,0,1,1.81-1.78,3,3,0,0,1,2.16.84,24.59,24.59,0,0,1,1.33,5.32c-.47-.16-.92-.32-1.44-.54C181.63,380.2,180.54,379,180.54,377.53Z" style="fill:#e0e0e0"></path><path d="M184.23,381.3a15.31,15.31,0,0,0,1.28,2.36,6.48,6.48,0,0,1,2,1,60.25,60.25,0,0,0-3-9.94,4.71,4.71,0,0,0-1.41-.58v1.71a3,3,0,0,1,1.43.77,24.59,24.59,0,0,1,1.33,5.32c-.47-.16-.92-.32-1.44-.54Z" style="opacity:0.1"></path><path d="M211.75,368.79c-.11-.12-.22-.25-.35-.37a10.76,10.76,0,0,0-2.23-1.65c-5.64-3.26-14.8-3.26-20.45,0a10.68,10.68,0,0,0-2.22,1.65,3,3,0,0,0-.35.37,5.7,5.7,0,0,0-1.66,3.87v3.14a14.46,14.46,0,1,0,28.92,0v-3.14A5.75,5.75,0,0,0,211.75,368.79Zm-22.58-1.26a21.71,21.71,0,0,1,19.57,0c2.44,1.41,3.79,3.24,3.79,5.14s-1.35,3.73-3.79,5.14a21.79,21.79,0,0,1-19.57,0c-2.45-1.41-3.8-3.24-3.8-5.15S186.72,368.94,189.17,367.53Z" style="fill:#fafafa"></path><path d="M199,364.45a20.71,20.71,0,0,1,10.16,2.42c2.69,1.56,4.18,3.62,4.18,5.8v3.14a14.34,14.34,0,0,1-28.67,0v-3.14c0-2.18,1.48-4.24,4.17-5.8A20.71,20.71,0,0,1,199,364.45m0-.13a20.88,20.88,0,0,0-10.22,2.45c-2.83,1.63-4.24,3.76-4.24,5.9v3.14A14.47,14.47,0,0,0,199,390.27h0a14.46,14.46,0,0,0,14.46-14.46v-3.14c0-2.14-1.41-4.27-4.23-5.9A20.94,20.94,0,0,0,199,364.32Z" style="fill:#e0e0e0"></path><path d="M208.23,386.9a14.79,14.79,0,0,1-4.25,2.47,14.49,14.49,0,0,1-19.49-13.57v-3.14c0,2.15,1.41,4.28,4.23,5.91a21.93,21.93,0,0,0,12.54,2.34,31.08,31.08,0,0,1-10.61,0c-2-.23-2.25,4.57,3.78,7.15A14.5,14.5,0,0,0,208.23,386.9Z" style="fill:#e0e0e0"></path><path d="M211.75,368.79c-.11-.12-.22-.25-.35-.37a10.76,10.76,0,0,0-2.23-1.65c-5.64-3.26-14.8-3.26-20.45,0a10.68,10.68,0,0,0-2.22,1.65,3,3,0,0,0-.35.37,5.7,5.7,0,0,0-1.66,3.87c0,2.15,1.41,4.28,4.23,5.91,5.65,3.26,14.81,3.26,20.45,0,2.83-1.63,4.24-3.76,4.24-5.91A5.75,5.75,0,0,0,211.75,368.79Zm-3,9a21.79,21.79,0,0,1-19.57,0c-2.45-1.41-3.8-3.24-3.8-5.15s1.35-3.72,3.8-5.13a21.71,21.71,0,0,1,19.57,0c2.44,1.41,3.79,3.24,3.79,5.14S211.18,376.4,208.74,377.81Z" style="fill:#fff"></path><path d="M212.53,372.67c0,1.9-1.35,3.73-3.79,5.14a21.79,21.79,0,0,1-19.57,0c-2.45-1.41-3.8-3.24-3.8-5.15s1.35-3.72,3.8-5.13a21.71,21.71,0,0,1,19.57,0C211.18,368.94,212.53,370.77,212.53,372.67Z" style="fill:#f0f0f0"></path><path d="M199,380.13a20.53,20.53,0,0,0,9-1.9,8.28,8.28,0,0,0-1.17-.81,17.35,17.35,0,0,0-15.59,0,9,9,0,0,0-1.18.81A20.53,20.53,0,0,0,199,380.13Z" style="fill:#e0e0e0"></path></g></g><g id="freepik--tea-spoon--inject-22"><path id="freepik--shadow--inject-22" d="M225.29,369.8v0h0a0,0,0,0,0,0,0v0l0,0h0l-.05,0h0l-17.91-9.9a2.52,2.52,0,0,0,.46-1.29.49.49,0,0,0,0-.12h0c0-.58-.45-1.21-1.39-1.85-2-1.36-6.48-2.54-8.4-1.43a1.35,1.35,0,0,0-.72,1.58h0a5.28,5.28,0,0,0,1.49,2.52h0l.18.19,0,0,.22.21a7.1,7.1,0,0,0,1.73,1.21,5.55,5.55,0,0,0,.56.24,6.81,6.81,0,0,0,.94.25,8.26,8.26,0,0,0,1.46.13,4.39,4.39,0,0,0,2.34-.66L223.24,371c.53.31,2-.48,2-.94v-.27Z" style="fill:#33A6B8;opacity:0.2"></path><g id="freepik--tea-spoon--inject-22"><path d="M203.84,360.71c2.14,0,3.89-1.47,3.89-3.08l-10.51-1.69a5.8,5.8,0,0,0,1.93,2.94A6.34,6.34,0,0,0,203.84,360.71Z" style="fill:#ebebeb"></path><path d="M203.84,360.71c2.14,0,3.89-1.47,3.89-3.08l-10.51-1.69a5.8,5.8,0,0,0,1.93,2.94A6.34,6.34,0,0,0,203.84,360.71Z" style="opacity:0.15"></path><path d="M207.19,357.87c0,1.15-1.34,2.57-3.47,2.57a7.52,7.52,0,0,1-5.38-2.4,7.88,7.88,0,0,0,.81.84,6.34,6.34,0,0,0,4.69,1.83c2.14,0,3.89-1.47,3.89-3.08l-.54-.08Z" style="opacity:0.15"></path><path d="M206.34,355.78c-2-1.35-6.48-2.54-8.4-1.43s.13,3.72,2.47,4.86a6.39,6.39,0,0,0,6.06.07C208.05,358.37,208.28,357.12,206.34,355.78Z" style="fill:#e6e6e6"></path><path d="M200,354a12.67,12.67,0,0,1,6.25,1.84c.91.63,1.36,1.25,1.34,1.84s-.44,1-1.2,1.47a5.48,5.48,0,0,1-2.75.72,7.4,7.4,0,0,1-3.21-.79c-1.74-.85-3.13-2.38-3.17-3.5a1.24,1.24,0,0,1,.7-1.16,4.14,4.14,0,0,1,2-.42m0-.12a4.21,4.21,0,0,0-2.09.44c-1.93,1.11.13,3.72,2.47,4.86a7.53,7.53,0,0,0,3.26.8,5.58,5.58,0,0,0,2.8-.73c1.58-.91,1.81-2.16-.13-3.5a12.81,12.81,0,0,0-6.31-1.87Z" style="fill:#e0e0e0"></path><path d="M205.23,356.06c-1.91-1.27-5.92-2.48-7.29-1.54s.88,3.34,3.06,4.44,3.94,1,5.07.25S207.13,357.32,205.23,356.06Z" style="fill:#f0f0f0"></path><path d="M203.09,355.6c-1.36-.91-4.2-1.76-5.18-1.1s.62,2.38,2.17,3.15,2.8.73,3.6.18S204.43,356.49,203.09,355.6Z" style="fill:#fafafa"></path><path d="M225.17,369l-18.16-10a6.09,6.09,0,0,1-1.16.67v.26l17.39,10.49c.53.31,2-.48,2-.93v-.27A.19.19,0,0,0,225.17,369Z" style="fill:#e0e0e0"></path><path d="M225.17,369l-18.16-10a6.09,6.09,0,0,1-1.16.67v.26l17.39,10.49c.53.31,2-.48,2-.93v-.27A.19.19,0,0,0,225.17,369Z" style="opacity:0.25"></path><path d="M223.24,370.07c.62.36,2.55-.76,1.93-1.11l-18.16-10a5.53,5.53,0,0,1-1.16.67Z" style="fill:#f0f0f0"></path><path d="M207.12,359.2l16.29,9c1.24.68,2,1,1.21,1.44s-1.15.3-1.15.3a2,2,0,0,0,.86-.3c.47-.3.06-.69-.84-1.13S207.12,359.2,207.12,359.2Z" style="fill:#fafafa"></path></g></g></g><g id="freepik--cup--inject-22"><ellipse id="freepik--shadow--inject-22" cx="285.53" cy="372.78" rx="20.25" ry="11.69" style="fill:#33A6B8;opacity:0.2"></ellipse><g id="freepik--mug--inject-22"><g id="freepik--plate--inject-22"><path d="M299.29,363c-7.6-4.38-19.92-4.38-27.52,0-3.8,2.2-5.7,5.07-5.7,7.95v.81c0,2.88,1.9,5.75,5.7,8,7.6,4.38,19.92,4.38,27.52,0,3.8-2.2,5.7-5.07,5.7-8v-.8C305,368,303.1,365.15,299.29,363Z" style="fill:#33A6B8"></path><path d="M299.29,363c-7.6-4.38-19.92-4.38-27.52,0-3.8,2.2-5.7,5.07-5.7,7.95v.81c0,2.88,1.9,5.75,5.7,8,7.6,4.38,19.92,4.38,27.52,0,3.8-2.2,5.7-5.07,5.7-8v-.8C305,368,303.1,365.15,299.29,363Z" style="fill:#fff;opacity:0.5"></path><path d="M279.07,381.5V360.3a24.38,24.38,0,0,0-7.3,2.65c-3.8,2.2-5.7,5.07-5.7,7.95v.81c0,2.88,1.9,5.75,5.7,8a25.75,25.75,0,0,0,8.93,2.94C279.16,382.33,279.07,381.5,279.07,381.5Z" style="opacity:0.1"></path><path d="M299.29,363c-7.6-4.38-19.92-4.38-27.52,0s-7.6,11.5,0,15.89,19.92,4.39,27.52,0S306.89,367.34,299.29,363Z" style="fill:#fff"></path><path d="M295.61,365.49c-5.56-3.22-14.59-3.22-20.15,0s-5.57,8.42,0,11.63,14.59,3.22,20.15,0S301.18,368.7,295.61,365.49Z" style="fill:#33A6B8"></path><path d="M295.61,365.49c-5.56-3.22-14.59-3.22-20.15,0s-5.57,8.42,0,11.63,14.59,3.22,20.15,0S301.18,368.7,295.61,365.49Z" style="fill:#fff;opacity:0.5"></path><path d="M294.36,366.76c-4.87-2.82-12.78-2.82-17.66,0s-4.87,7.38,0,10.2,12.79,2.81,17.66,0S299.24,369.58,294.36,366.76Z" style="fill:#fff"></path><path d="M271.66,378.19a23.39,23.39,0,0,0,5.11,1.94,30.61,30.61,0,0,0,5.38.86,34.2,34.2,0,0,0,5.45,0,32.51,32.51,0,0,0,5.37-.88,23.65,23.65,0,0,0,5.08-1.87,13.92,13.92,0,0,0,4.27-3.25,8.07,8.07,0,0,0,1.36-2.29,6.07,6.07,0,0,0,.4-2.63,6.56,6.56,0,0,0-.72-2.59,9.31,9.31,0,0,0-.72-1.16,10.76,10.76,0,0,0-.87-1.05,9.85,9.85,0,0,1,.93,1,8.19,8.19,0,0,1,.78,1.14,6.91,6.91,0,0,1,.86,2.63,6.47,6.47,0,0,1-.34,2.76,8,8,0,0,1-1.37,2.43,11.9,11.9,0,0,1-2,1.94,16.05,16.05,0,0,1-2.35,1.49,24,24,0,0,1-5.18,1.94,32.94,32.94,0,0,1-11,.79,29.45,29.45,0,0,1-5.42-1,23.42,23.42,0,0,1-2.59-.92A18.21,18.21,0,0,1,271.66,378.19Z" style="fill:#fff"></path><path d="M292.54,367a15.51,15.51,0,0,0-14,0c-3.87,2.24-3.87,5.86,0,8.09a15.44,15.44,0,0,0,14,0C296.41,372.84,296.41,369.22,292.54,367Z" style="fill:#f0f0f0"></path><path d="M293,373.19l-13.2-6.58-13.69,4.31c0,2.87,1.92,5.73,5.7,7.92a24.49,24.49,0,0,0,7.3,2.66Z" style="opacity:0.1"></path></g><g id="freepik--mug--inject-22"><path d="M304.08,359.54l-1-.59a3.37,3.37,0,0,0-1.62-.45,4.73,4.73,0,0,0-2.66.69s-1.91,10.13-2,10.54c.87-.71,2.13-1,3.79-1.64,2.21-.93,5.08-2.47,5.08-5.46A3.32,3.32,0,0,0,304.08,359.54Zm-5.22,6.33-.28.12a28.8,28.8,0,0,1,1.19-4.3,3,3,0,0,1,2.16-.84,1.87,1.87,0,0,1,.34,0,1.81,1.81,0,0,1,.44,1.16C302.71,363.53,301.63,364.71,298.86,365.87Z" style="fill:#fafafa"></path><path d="M302.45,359.09a4.73,4.73,0,0,0-2.66.69,60.69,60.69,0,0,0-3,10c.87-.71,2.13-1,3.79-1.64,2.21-.93,5.08-2.47,5.08-5.46A3.23,3.23,0,0,0,302.45,359.09Zm-2.57,7.37c-.52.22-1,.38-1.44.55a24.45,24.45,0,0,1,1.33-5.32,3,3,0,0,1,2.16-.84,1.8,1.8,0,0,1,1.81,1.78C303.74,364.12,302.65,365.3,299.88,366.46Z" style="fill:#e0e0e0"></path><path d="M300.05,366.39a15,15,0,0,1-1.28,2.37,6.48,6.48,0,0,0-2,1,60.69,60.69,0,0,1,3-10,4.71,4.71,0,0,1,1.41-.58v1.72a3,3,0,0,0-1.43.77,24.45,24.45,0,0,0-1.33,5.32c.47-.17.92-.33,1.44-.55Z" style="opacity:0.1"></path><path d="M270.87,357.76v3.14a14.46,14.46,0,0,0,28.92,0v-3.14a5.74,5.74,0,0,0-1.66-3.88,3.91,3.91,0,0,0-.35-.36,11.07,11.07,0,0,0-2.22-1.66c-5.65-3.25-14.81-3.25-20.45,0a11.15,11.15,0,0,0-2.23,1.66c-.13.12-.24.25-.35.36A5.79,5.79,0,0,0,270.87,357.76Zm28,0c0,1.91-1.35,3.74-3.8,5.14a21.71,21.71,0,0,1-19.57,0c-2.44-1.4-3.79-3.23-3.79-5.13s1.35-3.73,3.79-5.14a21.71,21.71,0,0,1,19.57,0C297.56,354,298.91,355.87,298.91,357.76Z" style="fill:#fafafa"></path><path d="M285.33,349.54A20.71,20.71,0,0,1,295.49,352c2.69,1.56,4.17,3.61,4.17,5.8v3.13a14.34,14.34,0,1,1-28.67,0v-3.13c0-2.19,1.49-4.24,4.18-5.8a20.71,20.71,0,0,1,10.16-2.43m0-.12a20.94,20.94,0,0,0-10.23,2.44c-2.82,1.63-4.23,3.77-4.23,5.91v3.13a14.45,14.45,0,0,0,14.46,14.46h0a14.46,14.46,0,0,0,14.46-14.46v-3.13c0-2.14-1.41-4.28-4.24-5.91a20.87,20.87,0,0,0-10.22-2.44Z" style="fill:#e0e0e0"></path><path d="M276.05,372a14.34,14.34,0,0,0,9.28,3.36,14.45,14.45,0,0,0,14.46-14.46v-3.14c0,2.15-1.41,4.28-4.23,5.91A21.93,21.93,0,0,1,283,366a31.36,31.36,0,0,0,10.61,0c2-.23,2.25,4.57-3.78,7.15A14.5,14.5,0,0,1,276.05,372Z" style="fill:#e0e0e0"></path><path d="M270.87,357.76c0,2.15,1.41,4.28,4.24,5.91,5.64,3.26,14.8,3.26,20.45,0,2.82-1.63,4.23-3.76,4.23-5.91a5.74,5.74,0,0,0-1.66-3.88,3.91,3.91,0,0,0-.35-.36,11.07,11.07,0,0,0-2.22-1.66c-5.65-3.25-14.81-3.25-20.45,0a11.15,11.15,0,0,0-2.23,1.66c-.13.12-.24.25-.35.36A5.79,5.79,0,0,0,270.87,357.76Zm.88,0c0-1.9,1.35-3.73,3.79-5.14a21.71,21.71,0,0,1,19.57,0c2.45,1.41,3.8,3.24,3.8,5.13s-1.35,3.74-3.8,5.14a21.71,21.71,0,0,1-19.57,0C273.1,361.5,271.75,359.67,271.75,357.77Z" style="fill:#fff"></path><path d="M271.75,357.77c0,1.9,1.35,3.73,3.79,5.13a21.71,21.71,0,0,0,19.57,0c2.45-1.4,3.8-3.23,3.8-5.14s-1.35-3.72-3.8-5.13a21.71,21.71,0,0,0-19.57,0C273.1,354,271.75,355.87,271.75,357.77Z" style="fill:#f0f0f0"></path><path d="M285.33,365.23a20.53,20.53,0,0,1-9-1.9,8.28,8.28,0,0,1,1.17-.81,17.35,17.35,0,0,1,15.59,0,9,9,0,0,1,1.18.81A20.53,20.53,0,0,1,285.33,365.23Z" style="fill:#e0e0e0"></path></g></g><g id="freepik--tea-spoon--inject-22"><path id="freepik--shadow--inject-22" d="M288.66,393.82v0h0l0,0v0s0,0,0,0h0l.06,0h0l17.91-9.9a2.63,2.63,0,0,1-.47-1.29v-.12h0c0-.58.44-1.21,1.39-1.85,2-1.36,6.48-2.54,8.4-1.43a1.36,1.36,0,0,1,.72,1.58h0a5.28,5.28,0,0,1-1.49,2.52h0l-.18.19,0,0-.22.21a7.1,7.1,0,0,1-1.73,1.21,4.87,4.87,0,0,1-.57.24,6.31,6.31,0,0,1-.93.25,8.29,8.29,0,0,1-1.47.13,4.44,4.44,0,0,1-2.34-.66L290.71,395c-.54.31-2-.48-2-.94,0,0,0-.22,0-.27Z" style="fill:#33A6B8;opacity:0.2"></path><g id="freepik--tea-spoon--inject-22"><path d="M310.1,384.73c-2.13,0-3.88-1.47-3.88-3.08L316.73,380a5.8,5.8,0,0,1-1.93,2.94A6.35,6.35,0,0,1,310.1,384.73Z" style="fill:#ebebeb"></path><path d="M310.1,384.73c-2.13,0-3.88-1.47-3.88-3.08L316.73,380a5.8,5.8,0,0,1-1.93,2.94A6.35,6.35,0,0,1,310.1,384.73Z" style="opacity:0.15"></path><path d="M306.75,381.89c0,1.15,1.35,2.57,3.48,2.57a7.54,7.54,0,0,0,5.38-2.4,7.88,7.88,0,0,1-.81.84,6.35,6.35,0,0,1-4.7,1.83c-2.13,0-3.88-1.47-3.88-3.08l.54-.08C306.76,381.68,306.76,381.8,306.75,381.89Z" style="opacity:0.15"></path><path d="M307.61,379.8c2-1.35,6.48-2.54,8.4-1.43s-.13,3.72-2.47,4.86a6.39,6.39,0,0,1-6.06.07C305.89,382.39,305.66,381.14,307.61,379.8Z" style="fill:#e6e6e6"></path><path d="M313.92,378h0a4.15,4.15,0,0,1,2,.43,1.24,1.24,0,0,1,.7,1.16c0,1.12-1.43,2.65-3.17,3.49a7.26,7.26,0,0,1-3.21.79,5.47,5.47,0,0,1-2.75-.71c-.76-.44-1.18-.95-1.2-1.47s.43-1.21,1.34-1.84a12.67,12.67,0,0,1,6.25-1.85m0-.11a12.77,12.77,0,0,0-6.31,1.87c-1.95,1.34-1.72,2.59-.13,3.5a5.58,5.58,0,0,0,2.8.73,7.53,7.53,0,0,0,3.26-.8c2.34-1.14,4.4-3.75,2.47-4.86a4.23,4.23,0,0,0-2.09-.44Z" style="fill:#e0e0e0"></path><path d="M308.71,380.08c1.92-1.27,5.93-2.48,7.3-1.54s-.88,3.34-3.06,4.44-3.94,1-5.07.25S306.82,381.34,308.71,380.08Z" style="fill:#f0f0f0"></path><path d="M310.86,379.62c1.36-.91,4.2-1.76,5.18-1.1s-.63,2.38-2.18,3.15-2.79.73-3.59.18S309.52,380.51,310.86,379.62Z" style="fill:#fafafa"></path><path d="M288.78,393l18.16-10a6.09,6.09,0,0,0,1.16.67v.26l-17.39,10.49c-.54.31-2-.48-2-.93,0-.05,0-.23,0-.27A.2.2,0,0,1,288.78,393Z" style="fill:#e0e0e0"></path><path d="M288.78,393l18.16-10a6.09,6.09,0,0,0,1.16.67v.26l-17.39,10.49c-.54.31-2-.48-2-.93,0-.05,0-.23,0-.27A.2.2,0,0,1,288.78,393Z" style="opacity:0.25"></path><path d="M290.71,394.09c-.62.36-2.56-.76-1.93-1.11l18.16-10a5.53,5.53,0,0,0,1.16.67Z" style="fill:#f0f0f0"></path><path d="M306.83,383.22l-16.29,9c-1.24.68-2,1-1.21,1.44s1.15.3,1.15.3a2,2,0,0,1-.87-.3c-.46-.3-.06-.69.85-1.13S306.83,383.22,306.83,383.22Z" style="fill:#fafafa"></path></g></g></g><g id="freepik--Cake--inject-22"><path d="M251.88,419.18a36.8,36.8,0,0,1-18.1-4.36c-5.26-3-8.15-7.2-8.15-11.73s2.89-8.7,8.15-11.74a39.75,39.75,0,0,1,36.2,0c5.25,3,8.15,7.2,8.15,11.74s-2.9,8.69-8.15,11.73A36.8,36.8,0,0,1,251.88,419.18Z" style="fill:#33A6B8;opacity:0.2"></path><g id="freepik--plate--inject-22"><path d="M268.87,392c-9.39-5.42-24.6-5.42-34,0h0v-1c-4.91,2.83-7.24,6.58-7,10.29-.22,3.71,2.11,7.47,7,10.3,9.38,5.41,24.59,5.41,34,0S278.25,397.45,268.87,392Z" style="fill:#33A6B8"></path><path d="M268.87,392c-9.39-5.42-24.6-5.42-34,0h0v-1c-4.91,2.83-7.24,6.58-7,10.29-.22,3.71,2.11,7.47,7,10.3,9.38,5.41,24.59,5.41,34,0S278.25,397.45,268.87,392Z" style="fill:#fff;opacity:0.30000000000000004"></path><path d="M268.87,391.06c9.38,5.41,9.38,14.2,0,19.61s-24.6,5.42-34,0-9.38-14.2,0-19.61S259.48,385.64,268.87,391.06Z" style="fill:#fafafa"></path><path d="M240.36,395.81c-6.45,3.72-6.45,9.76,0,13.48s16.9,3.72,23.35,0,6.45-9.76,0-13.48S246.81,392.09,240.36,395.81Z" style="fill:#33A6B8"></path><path d="M240.36,395.81c-6.45,3.72-6.45,9.76,0,13.48s16.9,3.72,23.35,0,6.45-9.76,0-13.48S246.81,392.09,240.36,395.81Z" style="fill:#fff;opacity:0.5"></path><path d="M241.15,396.27c-6,3.47-6,9.09,0,12.56s15.75,3.47,21.76,0,6-9.09,0-12.56S247.16,392.8,241.15,396.27Z" style="fill:#fafafa"></path></g><path id="freepik--shadow--inject-22" d="M266.93,405.92c0,.64-.05,1.33-.66,1.33l-31.42-.11c-1.31,0-1.5-.82-.89-2.81s4-8.08,9.23-9.23Z" style="opacity:0.15"></path><g id="freepik--Slice--inject-22"><path d="M266.93,387.55v18.61a.69.69,0,0,1-.77.68l-27.79-3.77a1.45,1.45,0,0,1-1.25-1.43V383.4a.68.68,0,0,1,.28-.54l14.24-10.65a1.37,1.37,0,0,1,1.83.17l13.16,14.38A1.21,1.21,0,0,1,266.93,387.55Z" style="fill:#263238"></path><path d="M245.28,374.6a34.6,34.6,0,0,1,6.3-2.8,1.67,1.67,0,0,1,1.77.46l13.34,14.57a.13.13,0,0,1-.12.22l-28.95-3.92c-.5-.07-.5.27-.5.27h0a1.62,1.62,0,0,1,.14-.65C238.56,379.76,241.24,376.93,245.28,374.6Z" style="fill:#455a64"></path><path d="M266.16,406.84l-3.5-.48-22.28-3a1.56,1.56,0,0,1-1.31-1.5v-2a1.13,1.13,0,0,1,1.31-1.15l26.55,3.58v3.94A.69.69,0,0,1,266.16,406.84Z" style="fill:#33A6B8"></path><path d="M240.38,396.79a1.56,1.56,0,0,1-1.31-1.5v-2.05a1.13,1.13,0,0,1,1.31-1.15l26.55,3.58v4.72Z" style="fill:#33A6B8"></path><path d="M240.38,390.24a1.56,1.56,0,0,1-1.31-1.5v-2.06a1.12,1.12,0,0,1,1.31-1.14l26.55,3.58v4.71Z" style="fill:#33A6B8"></path><path d="M254.43,374.23a7.58,7.58,0,0,0-6.88,0c-1.9,1.09-1.9,2.87,0,4a7.65,7.65,0,0,0,6.88,0C256.32,377.1,256.32,375.32,254.43,374.23Z" style="opacity:0.2"></path><path d="M249.8,371.35a7.66,7.66,0,0,0-2.58,1.5,2.79,2.79,0,0,0-.63,3.21,2.85,2.85,0,0,0,2.5,1.54,7.35,7.35,0,0,1,0-3.05C249.54,373,249.8,371.35,249.8,371.35Z" style="fill:#33A6B8"></path><path d="M249.8,371.35a7.66,7.66,0,0,0-2.58,1.5,2.79,2.79,0,0,0-.63,3.21,2.85,2.85,0,0,0,2.5,1.54,7.35,7.35,0,0,1,0-3.05C249.54,373,249.8,371.35,249.8,371.35Z" style="fill:#fff;opacity:0.2"></path><path d="M251.78,371.27c.36.51,1.65.8,2.5,1.36a3,3,0,0,1,1.52,1.66,1.88,1.88,0,0,1-.9,2.27c-1,.46-2.91-1.1-3.12-1.67A20.56,20.56,0,0,1,251.78,371.27Z" style="fill:#9a4a4d"></path><path d="M251.78,371.27c.36.51,1.65.8,2.5,1.36a3,3,0,0,1,1.52,1.66,1.88,1.88,0,0,1-.9,2.27c-1,.46-2.91-1.1-3.12-1.67A20.56,20.56,0,0,1,251.78,371.27Z" style="fill:#33A6B8"></path><path d="M251.78,371.27c.36.51,1.65.8,2.5,1.36a3,3,0,0,1,1.52,1.66,1.88,1.88,0,0,1-.9,2.27c-1,.46-2.91-1.1-3.12-1.67A20.56,20.56,0,0,1,251.78,371.27Z" style="fill:#fff;opacity:0.30000000000000004"></path><path d="M251.19,370.31a1.84,1.84,0,0,1,.64,1.64,2.9,2.9,0,0,0,1.71,2.92c1.54.82,1.73,1.64.9,2.36a2.59,2.59,0,0,1-1.88.54s-2.29-.53-2.76-2.24A6.25,6.25,0,0,1,251.19,370.31Z" style="fill:#33A6B8"></path><path d="M251.19,370.31a1.84,1.84,0,0,1,.64,1.64,2.9,2.9,0,0,0,1.71,2.92c1.54.82,1.73,1.64.9,2.36a2.59,2.59,0,0,1-1.88.54s-2.29-.53-2.76-2.24A6.25,6.25,0,0,1,251.19,370.31Z" style="fill:#fff;opacity:0.2"></path><path d="M251,378.27c1.49,0,2.09-.64,1.4-1.49-.35-.43-1-.6-1.36-1a2.71,2.71,0,0,1-.79-1.62c-.14-1.53,1.71-3.11.63-4.44-.11.73-.42,1.14-1.49,2a4.26,4.26,0,0,0-1.32,4.71A3.52,3.52,0,0,0,251,378.27Z" style="fill:#33A6B8"></path><path d="M251,378.27c1.49,0,2.09-.64,1.4-1.49-.35-.43-1-.6-1.36-1a2.71,2.71,0,0,1-.79-1.62c-.14-1.53,1.71-3.11.63-4.44-.11.73-.42,1.14-1.49,2a4.26,4.26,0,0,0-1.32,4.71A3.52,3.52,0,0,0,251,378.27Z" style="fill:#fff;opacity:0.1"></path><path d="M247.9,376.74a3.24,3.24,0,0,1-.08-1.7,2.82,2.82,0,0,0,2.26,2.21,4.08,4.08,0,0,0,1.51.16c.59-.05.93-.27.9-.5l-.08-.1a.52.52,0,0,0-.1-.11l-.05-.05,0,0-.13-.11-.06,0,0,0-.27-.17a4.81,4.81,0,0,1-.44-.29l-.07-.05-.11-.1,0,0-.09-.1a1.15,1.15,0,0,1-.14-.17l-.07-.08,0,0a1.71,1.71,0,0,1-.11-.14l-.1-.17a2.74,2.74,0,0,1-.21-.46.92.92,0,0,1,0-.09v0a3.14,3.14,0,0,0,1.72,1.51,3.44,3.44,0,0,0,2,.22c.64-.1.66-.44.66-.49s0,0,0,0a3.55,3.55,0,0,0-1.16-.89,5,5,0,0,1-.7-.47,3.54,3.54,0,0,0,.84.39,3.79,3.79,0,0,0,1.51.15c.56-.11.65-.39.56-.79a.78.78,0,0,0,.05.14,1.88,1.88,0,0,1-.9,2.27h0a1.35,1.35,0,0,1-.46.66,2.59,2.59,0,0,1-1.88.54h0a1.93,1.93,0,0,1-1.57.5,3.65,3.65,0,0,1-1.9-.67h0a2.85,2.85,0,0,1-2.5-1.54,2.63,2.63,0,0,1-.26-1.35h0A2.17,2.17,0,0,0,247.9,376.74Z" style="opacity:0.2"></path><path d="M247.37,378.85a7.63,7.63,0,0,0-6.87,0c-1.9,1.1-1.9,2.88,0,4a7.56,7.56,0,0,0,6.87,0C249.27,381.73,249.27,380,247.37,378.85Z" style="opacity:0.2"></path><path d="M242.75,376a7.56,7.56,0,0,0-2.58,1.5,2.75,2.75,0,0,0-.63,3.2,2.83,2.83,0,0,0,2.49,1.55,7.46,7.46,0,0,1,.06-3.05C242.48,377.63,242.75,376,242.75,376Z" style="fill:#33A6B8"></path><path d="M242.75,376a7.56,7.56,0,0,0-2.58,1.5,2.75,2.75,0,0,0-.63,3.2,2.83,2.83,0,0,0,2.49,1.55,7.46,7.46,0,0,1,.06-3.05C242.48,377.63,242.75,376,242.75,376Z" style="fill:#fff;opacity:0.2"></path><path d="M244.73,375.9c.36.51,1.64.8,2.5,1.35a3,3,0,0,1,1.51,1.67,1.87,1.87,0,0,1-.89,2.27c-1,.46-2.92-1.1-3.12-1.67A20.56,20.56,0,0,1,244.73,375.9Z" style="fill:#9a4a4d"></path><path d="M244.73,375.9c.36.51,1.64.8,2.5,1.35a3,3,0,0,1,1.51,1.67,1.87,1.87,0,0,1-.89,2.27c-1,.46-2.92-1.1-3.12-1.67A20.56,20.56,0,0,1,244.73,375.9Z" style="fill:#33A6B8"></path><path d="M244.73,375.9c.36.51,1.64.8,2.5,1.35a3,3,0,0,1,1.51,1.67,1.87,1.87,0,0,1-.89,2.27c-1,.46-2.92-1.1-3.12-1.67A20.56,20.56,0,0,1,244.73,375.9Z" style="fill:#fff;opacity:0.30000000000000004"></path><path d="M244.13,374.94a1.8,1.8,0,0,1,.64,1.63,2.91,2.91,0,0,0,1.72,2.93c1.54.82,1.72,1.64.9,2.36a2.59,2.59,0,0,1-1.88.54s-2.3-.53-2.76-2.24S243.17,375.7,244.13,374.94Z" style="fill:#33A6B8"></path><path d="M244.13,374.94a1.8,1.8,0,0,1,.64,1.63,2.91,2.91,0,0,0,1.72,2.93c1.54.82,1.72,1.64.9,2.36a2.59,2.59,0,0,1-1.88.54s-2.3-.53-2.76-2.24S243.17,375.7,244.13,374.94Z" style="fill:#fff;opacity:0.2"></path><path d="M243.93,382.9c1.49,0,2.09-.64,1.4-1.5-.34-.42-1-.59-1.35-1a2.74,2.74,0,0,1-.8-1.63c-.13-1.52,1.71-3.1.64-4.43-.12.72-.42,1.14-1.49,2A4.23,4.23,0,0,0,241,381,3.53,3.53,0,0,0,243.93,382.9Z" style="fill:#33A6B8"></path><path d="M243.93,382.9c1.49,0,2.09-.64,1.4-1.5-.34-.42-1-.59-1.35-1a2.74,2.74,0,0,1-.8-1.63c-.13-1.52,1.71-3.1.64-4.43-.12.72-.42,1.14-1.49,2A4.23,4.23,0,0,0,241,381,3.53,3.53,0,0,0,243.93,382.9Z" style="fill:#fff;opacity:0.1"></path><path d="M240.84,381.37a3.46,3.46,0,0,1-.08-1.7,2.84,2.84,0,0,0,2.27,2.21,4.06,4.06,0,0,0,1.51.16c.58-.05.92-.28.89-.5a.61.61,0,0,0-.07-.1l-.1-.12,0-.05-.05,0-.13-.1-.05,0,0,0-.27-.17-.44-.29-.06-.06-.12-.1h0l-.1-.1a2.09,2.09,0,0,1-.14-.17l-.07-.08,0,0-.1-.15-.11-.16a3.91,3.91,0,0,1-.21-.46.51.51,0,0,1,0-.09v0a3.17,3.17,0,0,0,1.72,1.51,3.56,3.56,0,0,0,2,.22c.64-.1.66-.44.66-.49l0,0a3.55,3.55,0,0,0-1.16-.89,3.56,3.56,0,0,1-.7-.48,3.08,3.08,0,0,0,.84.4,3.93,3.93,0,0,0,1.5.15c.56-.12.65-.39.56-.79a.78.78,0,0,1,.05.14,1.87,1.87,0,0,1-.89,2.27h0a1.35,1.35,0,0,1-.45.67,2.59,2.59,0,0,1-1.88.54h0a2,2,0,0,1-1.58.5,3.8,3.8,0,0,1-1.9-.67h0a2.83,2.83,0,0,1-2.49-1.55,2.39,2.39,0,0,1-.26-1.34h0A2.16,2.16,0,0,0,240.84,381.37Z" style="opacity:0.2"></path></g></g><g id="freepik--Teapot--inject-22"><path id="freepik--shadow--inject-22" d="M261.21,344.53c8.76,5.05,8.76,13.25,0,18.31s-23,5.05-31.72,0-8.75-13.26,0-18.31S252.45,339.47,261.21,344.53Z" style="opacity:0.2"></path><g id="freepik--teapot--inject-22"><path d="M271.67,322.68c-2.71-1.48-7-.36-10.08,5.86l1.32,1-3.45-2.41c3.35-6.74,8-7.37,10.73-5.42C270.6,322,271.21,322.37,271.67,322.68Z" style="fill:#fff"></path><path d="M271.81,329.56c-1.12,2.6-5.18,6.85-5.94,10l.53,2.39-2.66-3.83c.76-3.13,4.82-7.38,5.94-10a5,5,0,0,0,.09-4.46,2.91,2.91,0,0,1,1.27.49C272.26,325,272.93,327,271.81,329.56Z" style="fill:#e0e0e0"></path><path d="M272.52,331.33c-1.27,2.12-5.13,7.25-6.12,10.6l-.53-2.39c.76-3.13,4.82-7.38,5.94-10s.45-4.56-.77-5.41a2.91,2.91,0,0,0-1.27-.49c-2-.27-4.62,1.5-6.86,5.84l-1.32-1c3.1-6.22,7.37-7.34,10.08-5.86h0a4.44,4.44,0,0,1,.62.41h0C275,325.17,274,328.91,272.52,331.33Z" style="fill:#f0f0f0"></path><ellipse cx="245.47" cy="351.93" rx="16.38" ry="9.46" style="fill:#e0e0e0"></ellipse><path d="M266.59,341.17c0,11.67-9.45,18.15-21.12,18.15s-21.12-6.48-21.12-18.15a21.12,21.12,0,1,1,42.24,0Z" style="fill:#fafafa"></path><path d="M245.47,320.55a20.64,20.64,0,0,1,20.62,20.62c0,12.19-10.35,17.65-20.62,17.65s-20.62-5.46-20.62-17.65a20.64,20.64,0,0,1,20.62-20.62m0-.5a21.12,21.12,0,0,0-21.12,21.12c0,11.67,9.45,18.15,21.12,18.15s21.12-6.48,21.12-18.15a21.12,21.12,0,0,0-21.12-21.12Z" style="fill:#e0e0e0"></path><path d="M245.47,336.35c7.42,0,13.43-3.5,13.43-7.81a5,5,0,0,0-.81-2.65c-.25-.2-.5-.4-.77-.58-6.15-4.22-12.49-5.16-18.48-3.55-4.06,1.35-6.8,3.88-6.8,6.78C232,332.85,238.05,336.35,245.47,336.35Z" style="fill:#fff"></path><path d="M257,324.67l-.27-.32a14.84,14.84,0,0,0-22.46,0l-.27.32c-2.19,2.71-1.34,6,2.54,8.27,4.94,2.86,13,2.86,17.92,0C258.31,330.71,259.16,327.38,257,324.67Z" style="fill:#f0f0f0"></path><path d="M247.84,319.93a2.37,2.37,0,0,1-4.74,0c0-1.3,2.06-4,2.37-4S247.84,318.63,247.84,319.93Z" style="fill:#33A6B8"></path><path d="M247.77,319.45a1.76,1.76,0,0,1-3.51-.06,7,7,0,0,1,1.21-3.44c-.31,0-2.37,2.68-2.37,4a2.35,2.35,0,0,0,.11.71,2.37,2.37,0,0,0,4.52,0,2.35,2.35,0,0,0,.11-.71A2.22,2.22,0,0,0,247.77,319.45Z" style="opacity:0.2"></path><path d="M247.47,323.36c-.56.14.54,2.2,1.73,5.84.62,1.92,1,4.68,4.09,3.14,2.88-1.41.46-4.74-1.77-6.87C249.53,323.58,248.07,323.21,247.47,323.36Z" style="fill:#fafafa"></path><path d="M248,322.11a11.69,11.69,0,0,1,5,3.11c1.56,1.46,2.78,3.31,3.37,3.55s1-2.32,0-3.6a10.22,10.22,0,0,0-4.78-3.4C249.58,321.17,247.5,321.86,248,322.11Z" style="fill:#fafafa"></path><path d="M245.47,334.17c-3,0-3.52-.54-2.36-5.39.61-2.55,1.85-5.13,2.36-5.13s1.75,2.58,2.36,5.13C249,333.63,248.48,334.17,245.47,334.17Z" style="fill:#fafafa"></path><path d="M243.47,323.36c.56.14-.54,2.2-1.73,5.84-.62,1.92-1,4.68-4.09,3.14-2.88-1.41-.46-4.74,1.77-6.87C241.41,323.58,242.87,323.21,243.47,323.36Z" style="fill:#fafafa"></path><path d="M243,322.11a11.69,11.69,0,0,0-5,3.11c-1.56,1.46-2.78,3.31-3.37,3.55s-1-2.32,0-3.6a10.22,10.22,0,0,1,4.78-3.4C241.36,321.17,243.44,321.86,243,322.11Z" style="fill:#fafafa"></path><path d="M227.75,338.58c2.15,1.14,4.68,4.65,5,8.16s-1.31,5.44-3.5,6.19-6.92.34-9.41-1.67c-2.66-2.13-2.55-3.6-3.91-4.17s-2,.23-2.07-1.62a4.44,4.44,0,0,1,3.75-4.36c1.87-.34,2.71.64,3.78,2,.75.93,1.15,1.71,1.78,1.76s1.21-.4,1.56-2.15S226,339,227.75,338.58Z" style="fill:#fff"></path><path d="M219.53,342.16a3.72,3.72,0,0,0-3.72.81c-1.28,1.14-1.17,2.47-.87,2.61a5,5,0,0,0,3.41-1.12A3.15,3.15,0,0,0,219.53,342.16Z" style="fill:#f0f0f0"></path><path d="M232.79,346.74a11.91,11.91,0,0,0-2.35-5.68,7.82,7.82,0,0,1,.19,6.68,5,5,0,0,1-5.36,2.63c-2.93-.31-4-3-4.77-4.44s-1.77-.69-3,0-3.09.82-3.46.48c.26.6.9.25,1.92.68,1.36.57,1.25,2,3.91,4.17,2.49,2,7.22,2.41,9.41,1.67S233.15,350.25,232.79,346.74Z" style="fill:#f0f0f0"></path></g></g></g><g id="freepik--speech-bubble--inject-22"><g id="freepik--speech-bubble--inject-22"><g id="freepik--speech-bubble--inject-22"><path d="M106.47,220.33,103,213.77l2.81-8.09v-5l-8.59,5v4.95l3.69,6.39a.68.68,0,0,0,.25.23h0Z" style="fill:#33A6B8"></path><path d="M106.47,220.33,103,213.77l2.81-8.09v-5l-8.59,5v4.95l3.69,6.39a.68.68,0,0,0,.25.23h0Z" style="opacity:0.2"></path><path d="M127,161.32a5.66,5.66,0,0,0-2.58-4.45l-2.09-1.21a5.7,5.7,0,0,0-5.15,0L85,174.24a5.68,5.68,0,0,0-2.58,4.46v35.36A5.68,5.68,0,0,0,85,218.52l2.09,1.21a5.7,5.7,0,0,0,5.15,0l10.33-6,3.69,6.38a.55.55,0,0,0,1-.09l3.89-11.24,13.23-7.66a5.68,5.68,0,0,0,2.58-4.46Z" style="fill:#33A6B8"></path><path d="M82.44,214.06A5.68,5.68,0,0,0,85,218.52l2.09,1.21a5.76,5.76,0,0,0,4.71.2c-1.21.46-2.14-.22-2.14-1.69V182.88a5.18,5.18,0,0,1,.76-2.53l-7.24-4.19a5.25,5.25,0,0,0-.76,2.54Z" style="opacity:0.2"></path><path d="M126.88,160.59c-.3-1.09-1.29-1.44-2.48-.75L92.26,178.43a5,5,0,0,0-1.82,1.92l-7.24-4.18A5.19,5.19,0,0,1,85,174.25l32.13-18.59a5.7,5.7,0,0,1,5.15,0l2.1,1.21A5.69,5.69,0,0,1,126.88,160.59Z" style="fill:#fff;opacity:0.30000000000000004"></path></g><path id="freepik--Heart--inject-22" d="M107.74,204.17c-11.89-2.87-12.83-12.72-9.35-19.79,3.12-6.34,8.79-6.59,9.4-.43.65-6.88,6.34-13.14,9.43-10.36C120.67,176.7,119.68,187.65,107.74,204.17Z" style="fill:#fff"></path></g></g></svg>
